<?xml version="1.0" encoding="UTF-8" standalone="no"?>
<svg
   xmlns:dc="http://purl.org/dc/elements/1.1/"
   xmlns:cc="http://creativecommons.org/ns#"
   xmlns:rdf="http://www.w3.org/1999/02/22-rdf-syntax-ns#"
   xmlns:svg="http://www.w3.org/2000/svg"
   xmlns="http://www.w3.org/2000/svg"
   id="svg1803"
   version="1.1"
   viewBox="0 0 44.756565 8.9792471"
   height="8.9792471mm"
   width="44.756565mm">
  <defs
     id="defs1797" />
  <metadata
     id="metadata1800">
    <rdf:RDF>
      <cc:Work
         rdf:about="">
        <dc:format>image/svg+xml</dc:format>
        <dc:type
           rdf:resource="http://purl.org/dc/dcmitype/StillImage" />
        <dc:title></dc:title>
      </cc:Work>
    </rdf:RDF>
  </metadata>
  <g
     transform="translate(1.2116151,-49.093709)"
     id="layer1">
    <path
       d="m 2.330166,50.952002 v 0 c 0.063183,0.05782 0.16129,0.05348 0.2191102,-0.0097 0.044767,-0.04897 0.053481,-0.120967 0.021624,-0.179176 -0.020497,-0.03743 -0.040993,-0.07482 -0.061454,-0.112254 v 0 c -0.053869,-0.09874 -0.1775876,-0.135115 -0.2763301,-0.08121 -0.098707,0.05387 -0.1350788,0.177589 -0.08121,0.276331 0.035666,0.0653 0.1040697,0.105975 0.178435,0.106081 z m 0.095462,0.0701 c 0.028681,-0.0605 0.056339,-0.121744 0.086642,-0.181469 v 0 c 0.03041,-0.05983 0.029351,-0.13081 -0.00282,-0.189724 -0.07003,-0.128376 -0.2321665,-0.142981 -0.352499,-0.08442 -0.075424,0.03669 -0.1379715,0.09592 -0.191629,0.15949 v 0 c -0.098284,0.116488 -0.083538,0.290583 0.032914,0.388867 0.1164873,0.09828 0.2905831,0.08354 0.3888671,-0.03291 0.015346,-0.0182 0.028293,-0.03831 0.038488,-0.05983 z m -0.1968858,0.477132 c 0.061525,-0.160443 0.1232607,-0.321733 0.1968855,-0.477132 v 0 c 0.065264,-0.137724 0.00649,-0.30226 -0.1312333,-0.367524 -0.1131713,-0.05362 -0.2482499,-0.02431 -0.3290359,0.0714 -0.1293638,0.153318 -0.2270479,0.334222 -0.3190523,0.511458 v 0 c -0.081386,0.156739 -0.020286,0.349814 0.1364898,0.431165 0.1567744,0.08139 0.3498144,0.02025 0.431165,-0.13649 0.00554,-0.01069 0.010477,-0.02166 0.014781,-0.03288 z m -0.2414058,0.643678 c 0.078811,-0.215159 0.159385,-0.429718 0.2414058,-0.643678 v 0 c 0.063218,-0.164888 -0.019227,-0.34985 -0.18415,-0.413068 -0.151906,-0.05824 -0.323356,0.0069 -0.398286,0.151272 -0.1103135,0.212478 -0.2132188,0.428836 -0.3069872,0.649146 v 0 c -0.075353,0.17713 0.00713,0.381811 0.1842557,0.4572 0.1771298,0.07539 0.3818115,-0.0071 0.4572,-0.184221 0.00246,-0.0055 0.00452,-0.01104 0.00656,-0.01665 z M 1.6286672,53.185015 C 1.7452956,52.836717 1.861042,52.48782 1.9873364,52.142909 v 0 c 0.066217,-0.180763 -0.02667,-0.380929 -0.2074333,-0.447146 -0.1742369,-0.06378 -0.3679119,0.02007 -0.4405841,0.190818 -0.1472494,0.346004 -0.2771069,0.699735 -0.40809329,1.052124 v 0 c -0.071155,0.191488 0.026388,0.40439 0.21784029,0.475545 0.1914877,0.07119 0.4043892,-0.02635 0.4755796,-0.21784 0.0014,-0.0038 0.00282,-0.0076 0.00402,-0.0114 z m -0.4766379,1.371388 c 0.1649589,-0.455013 0.3229679,-0.91246 0.4766379,-1.371388 v 0 c 0.064876,-0.19371 -0.039582,-0.403331 -0.2332918,-0.468171 -0.18923,-0.06336 -0.3946172,0.03482 -0.46414969,0.221861 -0.167005,0.449404 -0.3359503,0.898137 -0.5078941,1.345671 v 0 c -0.077047,0.200519 0.023072,0.425521 0.2235905,0.502532 0.2004836,0.07705 0.42548529,-0.02307 0.50253189,-0.223555 7.065e-4,-0.0025 0.00176,-0.0046 0.00247,-0.0069 z M 0.73130651,55.662256 C 0.87922631,55.296601 1.0176563,54.927172 1.1520293,54.556403 v 0 c 0.073201,-0.201965 -0.03115,-0.424991 -0.23311549,-0.498193 -0.1992136,-0.07221 -0.4195939,0.02836 -0.4955822,0.226166 -0.140582,0.365972 -0.2792237,0.73272 -0.4130675,1.101196 v 0 c -0.0728134,0.200484 0.0306916,0.422063 0.2311752,0.494877 0.1954036,0.07094 0.4119386,-0.02547 0.4898672,-0.218193 z m -0.7469716,1.068422 c 0.3067403,-0.307763 0.58293,-0.662869 0.7469716,-1.068422 v 0 c 0.08001,-0.197732 -0.0154516,-0.422875 -0.2131836,-0.50285 -0.1977672,-0.08001 -0.4228747,0.01545 -0.5028847,0.213184 -0.00176,0.0043 -0.00353,0.0086 -0.00497,0.01302 -0.1432672,0.394511 -0.22109,0.811812 -0.26917357,1.227772 v 0 c -0.009031,0.07842 0.0471664,0.149331 0.12558887,0.158397 0.043427,0.005 0.086783,-0.01013 0.1176514,-0.04106 z"
       style="fill:#000000;fill-opacity:1;fill-rule:nonzero;stroke:none;stroke-width:0.35277775"
       id="path1384" />
    <path
       d="m 1.0001585,51.836804 c 0.099342,0.01845 0.1954741,0.06477 0.286138,0.107456 v 0 c 0.07747,0.03648 0.1698624,0.0032 0.2063397,-0.07426 0.036477,-0.0775 0.00318,-0.169898 -0.07426,-0.206375 0,0 0,0 0,0 -0.081809,-0.03849 -0.1692272,-0.08022 -0.2371722,-0.141217 l 1.411e-4,-3.5e-5 C 1.1399643,51.393186 1.001746,51.321995 0.87255881,51.363341 c -0.129152,0.04135 -0.2003425,0.179599 -0.158997,0.308751 0.0386292,0.120756 0.1628422,0.192229 0.28666719,0.164994 z M 0.41669931,51.442963 v 0 c 0,0.24892 0.2017889,0.450709 0.4506736,0.450709 0.24891999,0 0.45067359,-0.201789 0.45067359,-0.450709 v 0 c 0,-0.248885 -0.2017536,-0.450674 -0.45067359,-0.450674 -0.2488847,0 -0.4506736,0.201789 -0.4506736,0.450674 0,0 0,0 0,0 z m 0.3709459,0.444359 v 0 c 0.044556,0.0076 0.089994,0.0088 0.1349022,0.0035 0.12449519,-0.01478 0.23756049,-0.07842 0.34088909,-0.145874 v 0 C 1.5369452,51.566435 1.6139212,51.19997 1.4353804,50.926461 1.2568749,50.652952 0.89040931,50.575976 0.61690071,50.754517 c -0.0937683,0.06121 -0.1682397,0.147779 -0.2147358,0.249661 -0.0710142,0.155575 -0.0879122,0.335633 -0.0350308,0.499357 0.0614891,0.190429 0.2192161,0.349426 0.4205111,0.383822 z M 1.2634365,51.744941 c 0.081986,-0.05352 0.167887,-0.101318 0.2532945,-0.149084 v 0 C 1.8325377,51.419221 1.945356,51.020018 1.7687202,50.704211 1.5920844,50.388404 1.1928457,50.275586 0.87703901,50.452222 c -0.0518936,0.02903 -0.0995891,0.06498 -0.1417813,0.106856 -0.1313392,0.130387 -0.2556934,0.275414 -0.3331281,0.4451 v 0 c -0.1356078,0.297145 -0.00466,0.647947 0.2924881,0.783555 0.1844322,0.08414 0.39909739,0.06801 0.56881879,-0.04279 z M 1.516731,51.595857 C 1.6523387,51.52001 1.7920035,51.4515 1.9326912,51.385742 v 0 c 0.3522485,-0.164606 0.5043665,-0.583565 0.3397602,-0.935813 -0.1645708,-0.352249 -0.583565,-0.504367 -0.9358135,-0.33976 -0.026705,0.01249 -0.052634,0.02663 -0.077576,0.04237 -0.1870075,0.117969 -0.36660669,0.250472 -0.52380439,0.406541 v 0 c -0.256787,0.254953 -0.2582687,0.669784 -0.003175,0.926571 0.2072216,0.208739 0.52810829,0.253788 0.78478929,0.110208 z m 0.4159602,-0.210115 c 0.1826683,-0.08537 0.3693935,-0.161925 0.5577065,-0.233891 v 0 c 0.3820583,-0.14598 0.573405,-0.57404 0.4274254,-0.956099 -0.1459794,-0.382023 -0.57404,-0.573405 -0.9560984,-0.427425 -0.022894,0.0087 -0.045332,0.01863 -0.067239,0.0296 -0.1125009,0.05634 -0.2239785,0.114864 -0.3339042,0.176142 -0.1251302,0.06974 -0.2623255,0.13903 -0.3732036,0.230258 v 0 c -0.30024909,0.247015 -0.34335859,0.690668 -0.096344,0.990917 0.2041878,0.248144 0.5505097,0.326567 0.8416572,0.1905 z m 0.5577065,-0.233891 c 0.2316337,-0.08851 0.4652785,-0.171697 0.7001227,-0.251284 v 0 c 0.396875,-0.134479 0.6096,-0.565185 0.475121,-0.96206 -0.1344787,-0.396875 -0.5652204,-0.6096 -0.9620954,-0.475121 -2.471e-4,1.06e-4 -3.439e-4,1.76e-4 -7.143e-4,2.47e-4 -0.276225,0.09391 -0.5474052,0.203623 -0.808355,0.334292 v 0 c -0.3656894,0.183127 -0.513715,0.628015 -0.3305882,0.99374 0.1703917,0.340289 0.5710063,0.49604 0.9265005,0.360186 z M 3.1905204,50.900567 C 3.371707,50.839184 3.553811,50.777553 3.7391956,50.729893 v 0 C 4.1457014,50.6254 4.3905294,50.211098 4.2860012,49.804592 4.1815085,49.398087 3.7672062,49.153259 3.3607004,49.257787 c -0.00246,7.06e-4 -0.00473,0.0011 -0.00713,0.0018 -0.219569,0.0587 -0.4356455,0.130845 -0.650734,0.203976 v 0 c -0.3967292,0.134867 -0.6090309,0.56582 -0.4741286,0.962554 0.1347611,0.396452 0.5652207,0.608753 0.9618134,0.47438 z m 0.5486752,-0.170674 c 0.1544108,-0.03969 0.3128433,-0.06452 0.4704998,-0.0871 v 0 c 0.4161012,-0.05955 0.705132,-0.445135 0.6455479,-0.861236 -0.059549,-0.416066 -0.4451348,-0.705097 -0.8612011,-0.645548 -0.2151237,0.03076 -0.4303535,0.06742 -0.6404678,0.123613 v 3.6e-5 c -0.405483,0.108443 -0.6462538,0.525074 -0.5378099,0.930557 0.1077032,0.402696 0.5196769,0.643502 0.9234311,0.539679 z m 0.4704998,-0.0871 c 0.2115256,-0.03027 0.4235095,-0.05743 0.635917,-0.08089 v 0 c 0.4026959,-0.04445 0.6931025,-0.406929 0.6486525,-0.809625 -0.039194,-0.355247 -0.3287535,-0.630519 -0.6855177,-0.651756 -0.2718858,-0.01619 -0.5452178,-0.0032 -0.814705,0.03549 v 0 c -0.4161012,0.05955 -0.705132,0.445135 -0.6455833,0.861201 0.059549,0.416101 0.445135,0.705132 0.8612365,0.645583 0,0 0,0 0,0 z m 0.635917,-0.08089 c 0.1364546,-0.01506 0.2758723,-0.02191 0.4125032,-0.0049 v 0 C 5.6357289,50.604022 5.9799341,50.336017 6.0269595,49.958404 6.0696104,49.615751 5.852017,49.294405 5.518007,49.206846 5.2863024,49.146098 5.0475779,49.114736 4.8087472,49.100519 v 0 c -0.4044243,-0.02409 -0.7518045,0.284197 -0.7758641,0.688622 -0.024096,0.404424 0.2841979,0.751804 0.6886223,0.775899 0.041381,0.0025 0.082903,0.0014 0.124107,-0.0032 z M 5.2581508,50.557 c 0.1034698,0.01288 0.2075746,0.03147 0.3061406,0.06632 v -3.5e-5 c 0.3294592,0.116449 0.6909152,-0.05627 0.8073319,-0.38573 C 6.4577713,49.99375 6.3868973,49.72204 6.1926239,49.551402 6.0005012,49.38267 5.7641047,49.271369 5.5179716,49.206846 v 0 c -0.3680529,-0.09652 -0.7446785,0.123648 -0.8411985,0.491701 -0.096485,0.368089 0.1236485,0.744714 0.4917368,0.841199 0.029457,0.0077 0.059408,0.01351 0.089641,0.01725 z m 0.3061406,0.06632 c 0.033408,0.01178 0.065087,0.02854 0.089676,0.05443 v 0 c 0.2110317,0.222458 0.562469,0.231736 0.7849659,0.0207 0.1622779,-0.153917 0.2163233,-0.390208 0.13716,-0.599405 C 6.4960833,49.887696 6.3621337,49.7003 6.1926239,49.551393 v 0 c -0.2625373,-0.230576 -0.662305,-0.204682 -0.8928806,0.05786 -0.2306109,0.262537 -0.2047169,0.662269 0.05782,0.89288 0.060572,0.05316 0.1307394,0.0943 0.2067277,0.121144 z m 0.089676,0.05443 c 0.028011,0.02953 0.046214,0.0659 0.056621,0.105093 v 0 c 0.068756,0.259323 0.3347507,0.41384 0.5940778,0.345083 0.2034821,-0.05398 0.3490735,-0.232833 0.3605742,-0.443018 C 6.6761414,50.4858 6.6467194,50.28567 6.5760934,50.09905 v 0 C 6.4675083,49.812283 6.1470097,49.667821 5.8602366,49.77637 c -0.2867729,0.10855 -0.4312708,0.429049 -0.3226858,0.715857 0.026106,0.06893 0.065687,0.132009 0.1164166,0.185526 z m 0.8595784,0.612878 c 0.07941,-0.192794 0.1402646,-0.396558 0.1516946,-0.605755 v 0 c 0.014676,-0.2679 -0.1906059,-0.496958 -0.4585055,-0.511634 -0.2679345,-0.01468 -0.4969933,0.190606 -0.5116687,0.458541 -0.00282,0.05083 0.00246,0.101811 0.015523,0.151059 0.020497,0.0774 7.144e-4,0.16891 -0.017039,0.244475 v 0 c -0.054539,0.232269 0.089535,0.464785 0.3218039,0.519324 0.2064102,0.04847 0.4174773,-0.05997 0.4981927,-0.256011 z M 6.1361089,51.953397 C 6.2821237,51.745364 6.416532,51.526183 6.5135458,51.290634 v 0 c 0.090876,-0.220628 -0.014288,-0.473111 -0.2349146,-0.563986 -0.2205921,-0.09088 -0.4731104,0.01429 -0.5639506,0.234914 -0.00878,0.02131 -0.015875,0.04332 -0.021132,0.06576 -0.039758,0.169263 -0.1298575,0.326461 -0.2251779,0.469935 h -3.54e-5 c -0.1235779,0.185985 -0.07299,0.436986 0.1129948,0.5606 0.1826683,0.121355 0.428766,0.07503 0.5547783,-0.104458 z m -0.5542492,0.700158 c 0.1962502,-0.223908 0.3831519,-0.456424 0.5542492,-0.700158 v 0 c 0.1283052,-0.182809 0.084137,-0.43501 -0.098637,-0.563315 -0.1827741,-0.128306 -0.434975,-0.08414 -0.5633156,0.09864 -0.00212,0.0028 -0.00388,0.0056 -0.00579,0.0085 -0.1429809,0.215124 -0.310515,0.413385 -0.4905375,0.598311 v 0 c -0.158468,0.162772 -0.1549755,0.423157 0.00776,0.581625 0.1627717,0.158468 0.4231923,0.155011 0.58166,-0.0078 0.00501,-0.0052 0.00988,-0.01044 0.014605,-0.01584 z m -0.6904918,0.712047 c 0.2410529,-0.226448 0.4724752,-0.463268 0.6904918,-0.712047 v 0 c 0.149719,-0.17085 0.1326092,-0.430706 -0.038241,-0.580425 -0.1645356,-0.144216 -0.4131733,-0.134338 -0.565785,0.0224 -0.2099381,0.215653 -0.4335992,0.417759 -0.6665735,0.608189 h -3.55e-5 c -0.1882775,0.153917 -0.2161468,0.431306 -0.06223,0.619584 0.1539172,0.188277 0.4313061,0.216146 0.6195836,0.06227 0.00783,-0.0064 0.015417,-0.01305 0.022788,-0.01997 z m -0.7893402,0.700581 c 0.2691342,-0.226624 0.5328706,-0.459705 0.7893402,-0.700581 v 0 C 5.0686387,53.199126 5.0773522,52.920431 4.9108756,52.743196 4.7524431,52.574498 4.4904352,52.557247 4.3112239,52.70372 4.0513327,52.916163 3.7853029,53.121021 3.5147577,53.319705 v 0 c -0.2115256,0.155328 -0.2570691,0.45272 -0.1017413,0.664246 0.1553282,0.21149 0.4527199,0.257034 0.66421,0.101705 0.00847,-0.0062 0.016756,-0.0127 0.024799,-0.01947 z M 3.277586,54.761226 c 0.2746727,-0.231846 0.5494512,-0.46355 0.8244417,-0.695043 v 0 C 4.3027581,53.897167 4.3284756,53.597412 4.1594597,53.396681 3.9983462,53.205264 3.7164062,53.171609 3.5147585,53.319705 3.2407206,53.52093 2.9546531,53.705715 2.6589547,53.873496 v 0 c -0.260985,0.148061 -0.3525308,0.479707 -0.2044345,0.740692 0.148096,0.26102 0.479707,0.352531 0.740692,0.204435 0.029175,-0.01654 0.056762,-0.03574 0.082374,-0.0574 z M 1.9677572,55.746922 C 2.4133862,55.431856 2.8602497,55.11358 3.277586,54.761226 v 0 C 3.5068914,54.567657 3.5358546,54.224862 3.3422502,53.995557 3.1735519,53.795708 2.886426,53.744415 2.6589547,53.873496 2.2020722,54.132717 1.7392985,54.381672 1.2765951,54.630275 v 0 c -0.32003999,0.171979 -0.44005499,0.57083 -0.2681111,0.89087 0.1719792,0.32004 0.5708297,0.44009 0.8908697,0.268111 0.023635,-0.0127 0.046496,-0.02685 0.068404,-0.04233 z M 0.82549821,56.557464 C 1.2048754,56.285367 1.5865456,56.016445 1.9677572,55.746922 v 0 C 2.2644081,55.537196 2.3348579,55.126668 2.1251314,54.830017 1.9333262,54.558696 1.5692947,54.473006 1.2765951,54.630275 0.85936491,54.8545 0.44065291,55.076786 0.02843211,55.310148 v 0 c -0.35623497,0.201648 -0.48150637,0.653909 -0.27985857,1.010109 0.20164777,0.356235 0.65387357,0.481541 1.01010857,0.279894 0.023001,-0.01305 0.0453319,-0.0273 0.0668161,-0.04269 z m -0.278765,0.253048 c 0.074295,-0.10026 0.1782586,-0.180975 0.278765,-0.253048 v 0 c 0.33263419,-0.238548 0.40890469,-0.701604 0.1703564,-1.034238 -0.2206978,-0.307728 -0.6378575,-0.399627 -0.9674225,-0.213078 -0.1219553,0.06904 -0.2509661,0.135396 -0.38696191,0.17205 v 0 c -0.4538486,0.122308 -0.7225947,0.589315 -0.60032194,1.043164 0.12230805,0.453813 0.58931528,0.722594 1.04316385,0.600286 0.1852436,-0.04992 0.3481917,-0.160972 0.4624211,-0.315136 z M -1.2105587,56.383298 c -0.016969,0.353977 0.1717322,0.691162 0.47716724,0.863988 0.12453056,0.07041 0.26437166,0.111901 0.4068586,0.12192 0.1079147,0.0076 0.21657027,-0.0032 0.32152167,-0.02882 v 0 c 0.4402666,-0.108338 0.740798,-0.51502 0.7151511,-0.967669 l 0.00106,1.06e-4 c 0.038063,-0.468454 -0.3108695,-0.879087 -0.7793583,-0.917152 -0.097578,-0.0079 -0.1957917,0.0011 -0.29030087,0.02653 -0.0445205,0.01199 -0.0891117,0.02399 -0.13352637,0.03637 -0.14866056,0.04138 -0.28437417,0.104634 -0.40343667,0.20955 v 0 c -0.0894644,0.07885 -0.162948,0.174131 -0.2164997,0.280706 l -1.058e-4,-7.1e-5 c -0.058667,0.116593 -0.092216,0.244193 -0.09846,0.374544 z m 1.20554751,0.957086 c 0.292735,-0.07204 0.545218,-0.251707 0.7717719,-0.4439 v 0 c 0.37546139,-0.318523 0.42163999,-0.881098 0.1031169,-1.256559 -0.2527652,-0.297956 -0.6701013,-0.396593 -1.0295113,-0.243346 -0.0710142,0.03027 -0.14231057,0.0599 -0.21459474,0.08692 -0.0234243,0.0087 -0.063888,0.02392 -0.0808567,0.02808 v 3.5e-5 c -0.50500133,0.124284 -0.81364657,0.634436 -0.68936297,1.139437 0.1242836,0.505002 0.63443551,0.813647 1.13943691,0.689328 z m 0.7718072,-0.4439 C 0.96170571,56.731102 1.1653996,56.576021 1.3706104,56.423726 v 0 C 1.7357002,56.152758 1.812006,55.637138 1.5410372,55.272048 1.2841093,54.925867 0.80362601,54.836544 0.43945351,55.067225 c -0.1920169,0.121638 -0.3896078,0.24003 -0.5991225,0.329389 v 0 c -0.45289608,0.193111 -0.66350441,0.716844 -0.47035858,1.16974 0.19311054,0.452897 0.71684438,0.663505 1.16974048,0.470394 0.0823031,-0.0351 0.1588559,-0.08237 0.2270831,-0.140264 z M 1.3705751,56.423726 c 0.2605263,-0.193322 0.5211234,-0.386609 0.7817203,-0.579825 v 0 C 2.4897272,55.593711 2.5604594,55.11732 2.3103045,54.779888 2.092041,54.485495 1.6948485,54.388587 1.3655304,54.549418 1.0475718,54.704676 0.73836211,54.877854 0.43945351,55.067225 v 0 c -0.3840692,0.243276 -0.4981928,0.751876 -0.2549172,1.13598 0.2433108,0.384069 0.7518752,0.498193 1.13597969,0.254917 0.01711,-0.01087 0.033796,-0.02233 0.050059,-0.0344 z m 0.7817203,-0.57986 c 0.215124,-0.159491 0.4041423,-0.353801 0.5841648,-0.551145 0.2353027,-0.257951 0.4558945,-0.529273 0.6707717,-0.804369 v 0 c 0.058349,-0.07468 0.045085,-0.182527 -0.029598,-0.240876 -0.032314,-0.02522 -0.072566,-0.03806 -0.1134885,-0.03616 -0.3539067,0.01623 -0.708519,0.04307 -1.0585098,0.09948 -0.286526,0.04621 -0.5778148,0.110525 -0.840105,0.238619 v 0 c -0.37747239,0.184327 -0.53403519,0.639727 -0.3497088,1.017235 0.1843264,0.377472 0.6397271,0.534035 1.0171994,0.349708 0.04191,-0.02046 0.081809,-0.0447 0.1192742,-0.07246 z"
       style="fill:#000000;fill-opacity:1;fill-rule:nonzero;stroke:none;stroke-width:0.35277775"
       id="path1386" />
    <path
       d="m 11.383643,50.361699 c 0.01016,0.02424 0.01743,0.04953 0.02346,0.07507 v 0 c 0.01972,0.08336 0.103258,0.134938 0.186619,0.115217 0.04053,-0.0096 0.07553,-0.0351 0.09705,-0.07077 0.01746,-0.02889 0.03898,-0.075 0.06872,-0.09317 v 0 c 0.153283,-0.09373 0.201543,-0.293969 0.107846,-0.447251 -0.09373,-0.153247 -0.29397,-0.201542 -0.447252,-0.107809 -0.153282,0.0937 -0.201542,0.293934 -0.107844,0.447216 0.01898,0.03105 0.04304,0.05867 0.07116,0.08174 z m 0.311503,0.06749 c 0.03658,-0.01351 0.07218,-0.02949 0.105304,-0.05031 v 0 c 0.02402,-0.0151 0.0466,-0.03246 0.06738,-0.05179 0.115218,-0.107103 0.167147,-0.267864 0.148978,-0.422592 v 0 c -0.03203,-0.272944 -0.279223,-0.468242 -0.552167,-0.43621 -0.272944,0.03203 -0.468242,0.279224 -0.43621,0.552168 0.03203,0.272944 0.279224,0.468242 0.552168,0.43621 0.03912,-0.0046 0.07758,-0.01379 0.114547,-0.02748 z m -0.263137,0.07987 c 0.08802,-0.02473 0.177306,-0.04812 0.263137,-0.07987 v 0 c 0.215512,-0.07966 0.348438,-0.296474 0.321662,-0.524686 -0.03253,-0.277213 -0.26229,-0.463586 -0.502108,-0.569031 v 0 c -0.315877,-0.138959 -0.684601,0.0045 -0.823524,0.320393 -0.13896,0.315877 0.0045,0.6846 0.320392,0.82356 0.132468,0.05828 0.281094,0.06872 0.420441,0.02963 z m -0.336409,0.09306 c 0.112254,-0.03059 0.224402,-0.06163 0.336409,-0.09306 v 0 C 11.764255,50.41578 11.958,50.070834 11.864761,49.738552 11.814243,49.5586 11.685797,49.410716 11.5147,49.335469 11.315698,49.247909 11.097858,49.202542 10.880194,49.211573 v 0 c -0.390666,0.01626 -0.694196,0.346146 -0.677968,0.736847 0.01626,0.390666 0.346145,0.694196 0.736811,0.677933 0.05295,-0.0021 0.105445,-0.01034 0.156563,-0.02424 z m -0.272062,0.09867 c 0.08869,-0.03757 0.178999,-0.07334 0.272062,-0.09867 v 0 c 0.377296,-0.102729 0.599863,-0.491843 0.497169,-0.869138 -0.08678,-0.31877 -0.382516,-0.535129 -0.712575,-0.521406 -0.190606,0.0079 -0.378848,0.04837 -0.560811,0.10414 v 0 C 9.92974,49.435164 9.7107,49.847914 9.830151,50.237557 c 0.11945,0.389678 0.5322,0.608718 0.921843,0.489267 0.02427,-0.0074 0.04815,-0.01616 0.07154,-0.02604 z m -0.426473,0.191347 c 0.14104,-0.06625 0.282998,-0.130599 0.426473,-0.191382 v 3.5e-5 c 0.375285,-0.158997 0.55065,-0.592067 0.391654,-0.967352 -0.147461,-0.348192 -0.534282,-0.528567 -0.895809,-0.417724 -0.191805,0.05881 -0.378248,0.134232 -0.559752,0.219498 v -3.5e-5 c -0.374721,0.176036 -0.535764,0.622512 -0.359763,0.997197 0.176036,0.37472 0.622511,0.535799 0.997197,0.359763 z m -0.501298,0.251742 c 0.165241,-0.08749 0.332035,-0.172226 0.501298,-0.251742 v 0 c 0.374685,-0.176001 0.535798,-0.622441 0.359762,-0.997162 -0.176,-0.37472 -0.622476,-0.535799 -0.997161,-0.359798 0,0 0,0 0,0 -0.192194,0.09028 -0.381318,0.187043 -0.56836,0.287479 v 0 c -0.364279,0.195615 -0.5010154,0.649463 -0.3054,1.013742 0.194804,0.362761 0.645971,0.500133 1.009861,0.307481 z m -0.502073,0.296721 c 0.162631,-0.106644 0.3302,-0.20574 0.502073,-0.296721 v 0 c 0.365408,-0.193463 0.50479,-0.646501 0.311362,-1.011943 -0.193463,-0.365407 -0.646536,-0.50479 -1.011943,-0.311362 -0.0014,7.07e-4 -0.0025,0.0014 -0.0039,0.0021 -0.211295,0.113489 -0.4175646,0.236396 -0.618013,0.368123 h -3.52e-5 c -0.3450166,0.226695 -0.4409016,0.69021 -0.2142066,1.035227 0.2265891,0.344805 0.6896448,0.440831 1.0346618,0.214595 z M 8.956638,51.750338 C 9.097572,51.640624 9.244363,51.53853 9.393694,51.440599 v 0 C 9.738922,51.214187 9.835266,50.750813 9.608888,50.405549 9.382476,50.060321 8.919067,49.963977 8.5738385,50.19039 c -2.117e-4,1.41e-4 -3.44e-4,2.47e-4 -7.144e-4,3.52e-4 -0.2077863,0.13656 -0.4056946,0.289807 -0.5818717,0.465667 v 0 c -0.2856793,0.285115 -0.2861381,0.747853 -0.00106,1.033533 0.2606675,0.261161 0.6751108,0.287055 0.9662576,0.06036 z M 8.7280376,51.959747 C 8.79436,51.88069 8.875499,51.813521 8.956638,51.750338 v 0 c 0.318488,-0.247967 0.375638,-0.707143 0.12767,-1.025631 -0.247967,-0.318452 -0.7071783,-0.375602 -1.0256662,-0.127635 -0.023601,0.01838 -0.046073,0.03821 -0.067275,0.05937 -0.1444625,0.14418 -0.2801056,0.299191 -0.3910541,0.470958 v 0 c -0.2103967,0.325755 -0.1168752,0.760413 0.2088798,0.970809 0.2973914,0.192088 0.6912679,0.132751 0.9188447,-0.138465 z m -0.066781,0.101635 c 0.014499,-0.03753 0.041205,-0.07116 0.066781,-0.101635 v 0 C 8.977311,51.662708 8.938611,51.219796 8.6415366,50.970523 8.3444624,50.721215 7.9015854,50.75995 7.6522772,51.056989 c -0.018767,0.02237 -0.036124,0.0459 -0.051964,0.07041 -0.1050925,0.162737 -0.1879952,0.340748 -0.2335742,0.529484 v 0 c -0.088053,0.364843 0.1363133,0.732014 0.501156,0.820103 0.3312584,0.07994 0.6705248,-0.09775 0.7933617,-0.415608 z m -1.3221754,0.138854 v 0 c 0.054963,0.351331 0.3843512,0.591608 0.7357179,0.536645 0.259856,-0.04068 0.4688417,-0.235267 0.5279319,-0.491525 0.014465,-0.06276 0.035348,-0.124001 0.058561,-0.184009 v 0 c 0.13529,-0.350097 -0.038841,-0.743585 -0.3889373,-0.878875 -0.3500966,-0.135326 -0.743585,0.03881 -0.8788752,0.388902 -0.010795,0.02791 -0.019719,0.05648 -0.026741,0.08555 -0.042792,0.177306 -0.055915,0.36262 -0.027657,0.543313 z m 0,-3.6e-5 c 0.035419,0.226554 0.1515179,0.43106 0.3175352,0.587622 v 0 c 0.2399948,0.226307 0.617996,0.215195 0.8443029,-0.0248 0.1615017,-0.171274 0.2073275,-0.421464 0.1170165,-0.638881 l 7.143e-4,2.12e-4 C 8.6317391,51.768965 8.354243,51.470268 7.9988549,51.45718 7.6434666,51.44413 7.3447343,51.721622 7.3316816,52.07701 c -0.0014,0.0412 0.00106,0.08244 0.0073,0.12319 z m 0.3175352,0.587622 c 0.142381,0.134232 0.3168298,0.229341 0.4999919,0.295593 v 0 c 0.2831393,0.102411 0.5956652,-0.04413 0.6980417,-0.327237 0.081244,-0.224649 0.00677,-0.475968 -0.1836917,-0.620113 -0.031609,-0.02392 -0.069815,-0.05186 -0.090488,-0.08682 v 0 c -0.1679218,-0.283949 -0.534211,-0.378 -0.8181264,-0.210077 -0.2839508,0.167922 -0.3780015,0.534211 -0.2100792,0.818127 0.028504,0.04819 0.063606,0.09211 0.1043517,0.130527 z m 0.5000271,0.295593 c 0.1782233,0.06445 0.3629025,0.11056 0.5480404,0.150036 v 0 C 8.967821,53.289578 9.226583,53.121797 9.28271,52.85866 9.331676,52.629178 9.210038,52.397403 8.993362,52.307269 8.881919,52.260949 8.7677606,52.209302 8.6709583,52.136065 v 0 c -0.2400652,-0.18168 -0.5819775,-0.134337 -0.7636579,0.105728 -0.1816807,0.240101 -0.134338,0.582013 0.1057627,0.763693 0.043674,0.03306 0.092075,0.0593 0.1435804,0.07793 z m 0.5480404,0.150036 c 0.2210501,0.04717 0.4429481,0.09024 0.6652331,0.131198 v 0 c 0.242288,0.04466 0.474874,-0.11557 0.519536,-0.357858 C 9.931783,52.777098 9.789793,52.553649 9.563874,52.494417 9.37027,52.443688 9.178288,52.384174 8.993362,52.307269 v 0 c -0.248391,-0.103294 -0.533506,0.01432 -0.6368346,0.262748 -0.1032933,0.248391 0.014322,0.533506 0.262749,0.636799 0.027587,0.0115 0.056197,0.02043 0.085407,0.02663 z m 0.6652331,0.131198 c 0.226025,0.04166 0.451485,0.08675 0.675922,0.136349 v 0 c 0.229905,0.0508 0.457482,-0.09437 0.508282,-0.324309 0.04953,-0.224014 -0.08717,-0.447075 -0.30928,-0.504684 -0.227083,-0.05884 -0.45406,-0.118074 -0.680967,-0.177553 v 0 c -0.238301,-0.06248 -0.482141,0.08005 -0.544618,0.318382 -0.06248,0.238302 0.08008,0.482142 0.318382,0.544618 0.01065,0.0028 0.02141,0.0052 0.03228,0.0072 z m 0.675922,0.136349 c 0.197344,0.04364 0.393065,0.09493 0.585682,0.15621 v 0 c 0.218828,0.06957 0.452649,-0.05143 0.522252,-0.270263 0.06816,-0.214419 -0.04653,-0.444148 -0.258868,-0.518478 -0.213748,-0.07479 -0.430883,-0.139594 -0.650064,-0.196426 v -3.6e-5 c -0.227894,-0.05909 -0.460587,0.07775 -0.519677,0.305682 -0.05913,0.22793 0.07775,0.460622 0.305647,0.519713 0.005,0.0014 0.01,0.0025 0.01503,0.0036 z m 0.585682,0.15621 c 0.148449,0.0472 0.296016,0.101318 0.434481,0.173178 v 0 c 0.19999,0.103823 0.446299,0.0259 0.550121,-0.174131 0.101671,-0.195897 0.02914,-0.437162 -0.163724,-0.544477 -0.177376,-0.09874 -0.366112,-0.176318 -0.557494,-0.243311 v 0 c -0.216782,-0.07585 -0.45399,0.03835 -0.529837,0.255094 -0.07588,0.216746 0.03831,0.453954 0.255093,0.529837 0.0037,0.0014 0.0075,0.0025 0.01136,0.0038 z m 0.434481,0.173178 c 0.08184,0.04251 0.163971,0.09144 0.229799,0.156845 v 0 c 0.155081,0.153988 0.405624,0.153106 0.559647,-0.0021 0.142875,-0.143862 0.153881,-0.372498 0.02543,-0.529449 -0.116942,-0.142906 -0.267895,-0.254666 -0.42848,-0.344025 v 0 c -0.196885,-0.109608 -0.445346,-0.03881 -0.554919,0.15808 -0.109573,0.196885 -0.03881,0.445346 0.15808,0.554919 0.0035,0.0021 0.0069,0.0038 0.01044,0.0056 z m 0.229799,0.156845 c 0.03115,0.0309 0.05828,0.06717 0.07126,0.109573 v 0 c 0.06103,0.199143 0.271957,0.311115 0.4711,0.250084 0.181892,-0.05574 0.293793,-0.238266 0.260985,-0.425661 -0.03006,-0.171556 -0.108267,-0.331012 -0.218263,-0.465385 v 0 c -0.138395,-0.169157 -0.387702,-0.194063 -0.556824,-0.05563 -0.169157,0.138395 -0.194063,0.387703 -0.05567,0.556825 0.0086,0.01055 0.01778,0.0206 0.02741,0.0302 z m 0.786271,0.401603 c 0.0363,-0.153035 0.04427,-0.312385 0.01707,-0.467607 v 0 c -0.03595,-0.205176 -0.231387,-0.342336 -0.436563,-0.306423 -0.205175,0.03595 -0.342335,0.231422 -0.306422,0.436562 0.0028,0.01535 0.0063,0.03052 0.0109,0.04544 0.01037,0.03383 0.0061,0.07003 -0.0036,0.10347 v 0 c -0.05676,0.197203 0.05708,0.403084 0.254282,0.459846 0.197168,0.05676 0.403049,-0.05704 0.45981,-0.254247 0.0018,-0.0056 0.0032,-0.01132 0.0045,-0.01704 z m -0.282469,0.511704 c 0.128376,-0.147991 0.23682,-0.319264 0.282469,-0.511704 v 0 c 0.04738,-0.199673 -0.07609,-0.399909 -0.275766,-0.447287 -0.193005,-0.04579 -0.387914,0.06812 -0.442807,0.258762 -0.01965,0.06833 -0.07733,0.128058 -0.126012,0.176777 h 3.5e-5 c -0.150036,0.150107 -0.149965,0.393418 1.77e-4,0.543454 0.150107,0.150001 0.393418,0.149931 0.543419,-1.76e-4 0.0064,-0.0064 0.01256,-0.01302 0.01849,-0.01982 z M 11.3121,55.359819 c 0.172931,-0.140934 0.341065,-0.290512 0.487503,-0.459281 v 0 c 0.139065,-0.160338 0.12185,-0.403013 -0.03849,-0.542114 -0.152365,-0.13215 -0.381,-0.124037 -0.523593,0.01866 -0.119133,0.119169 -0.262466,0.214419 -0.405976,0.301343 v 0 c -0.197415,0.119592 -0.260491,0.376555 -0.1409,0.573969 0.119592,0.197415 0.376555,0.260492 0.57397,0.1409 0.01658,-0.01005 0.03246,-0.02124 0.04748,-0.03348 z m -0.670702,0.463056 c 0.234457,-0.137654 0.459882,-0.291218 0.670702,-0.463056 v 0 c 0.178928,-0.145803 0.205775,-0.409081 0.05994,-0.587974 -0.131657,-0.161573 -0.362233,-0.201401 -0.540491,-0.09342 -0.196321,0.118921 -0.401744,0.222567 -0.612246,0.313902 v 0 c -0.236432,0.102623 -0.344946,0.377472 -0.242323,0.613904 0.102588,0.236431 0.377437,0.344946 0.613904,0.242322 0.01732,-0.0075 0.03418,-0.01609 0.05052,-0.02568 z m -0.719984,0.39497 c 0.243664,-0.124777 0.48387,-0.256328 0.719984,-0.39497 v 0 c 0.22225,-0.130492 0.296616,-0.416454 0.166124,-0.638739 -0.119416,-0.203376 -0.371828,-0.28568 -0.588222,-0.191805 -0.220874,0.09585 -0.448769,0.175295 -0.680967,0.238936 v 0 c -0.283351,0.07768 -0.450109,0.370346 -0.372463,0.653697 0.07768,0.283351 0.370346,0.450074 0.653697,0.372428 0.03521,-0.0097 0.06936,-0.02289 0.101847,-0.03955 z m -0.821513,0.381812 c 0.277953,-0.118075 0.552661,-0.244158 0.821513,-0.381812 v 0 c 0.261514,-0.133914 0.364949,-0.454483 0.231034,-0.715998 -0.114829,-0.224225 -0.371157,-0.337149 -0.614115,-0.27058 -0.269981,0.07401 -0.541937,0.140653 -0.8149166,0.20253 v -3.6e-5 c -0.3312583,0.07511 -0.5389388,0.404531 -0.4638675,0.735789 0.075071,0.331293 0.404495,0.538974 0.7357881,0.463867 0.03577,-0.0081 0.07077,-0.0194 0.104564,-0.03376 z M 8.1845131,56.93349 C 8.495416,56.838946 8.800851,56.726727 9.099901,56.599657 v 0 C 9.412532,56.466836 9.558265,56.105697 9.425444,55.793101 9.309098,55.51931 9.013541,55.368039 8.7234164,55.433761 8.435726,55.49899 8.1470481,55.560021 7.8574529,55.616183 v 0 c -0.3684765,0.07144 -0.6092473,0.428025 -0.5378098,0.796501 0.071438,0.368442 0.4280606,0.609212 0.7965016,0.537775 0.023072,-0.0045 0.045896,-0.01013 0.068368,-0.01697 z M 7.3782747,57.135173 C 7.6511483,57.086807 7.919577,57.014065 8.1845131,56.93349 v 0 C 8.5436056,56.82427 8.7461706,56.444681 8.6369506,56.085589 8.5357033,55.752567 8.1991533,55.549931 7.8574529,55.616183 7.6162587,55.662926 7.3748881,55.708822 7.1329883,55.75172 v 0 c -0.3820229,0.06773 -0.6368344,0.432329 -0.5691011,0.814352 0.067733,0.382059 0.4323292,0.636835 0.8143875,0.569101 z m -0.5919258,0.06378 c 0.1984727,7.15e-4 0.3969102,-0.02921 0.5919258,-0.06378 v 0 C 7.7602979,57.06744 8.0150739,56.702844 7.9473406,56.320821 7.8796072,55.938763 7.5150114,55.683987 7.1329883,55.75172 c 0,0 0,0 0,0 -0.1294342,0.02293 -0.2602794,0.04657 -0.3915834,0.05542 v 0 c -0.3839279,0.02593 -0.6741229,0.358139 -0.6482291,0.742032 0.024625,0.364984 0.3273425,0.648758 0.6931731,0.649781 z m -0.5785556,-0.13303 c 0.1754364,0.101177 0.3786364,0.132468 0.5785556,0.133033 v 0 c 0.3847748,0.0011 0.6975475,-0.309951 0.698641,-0.694726 0.00106,-0.369746 -0.2869493,-0.675922 -0.656096,-0.697477 l -0.091405,-0.0021 c -0.3667827,-0.102267 -0.7470419,0.112187 -0.8493123,0.47897 -0.084525,0.303177 0.04699,0.625087 0.3196167,0.78239 z m 3.54e-5,0 v 0 c 0.3298119,0.190253 0.7514519,0.07712 0.941705,-0.25273 0.08449,-0.146438 0.1122185,-0.318841 0.077893,-0.484399 l 7.144e-4,1.06e-4 c 0.033126,-0.37458 -0.2436984,-0.705097 -0.618278,-0.738223 -0.2841977,-0.02512 -0.5539317,0.12961 -0.6757104,0.387632 -0.059161,0.125342 -0.099554,0.260209 -0.1039283,0.39945 -0.00878,0.279259 0.1340202,0.547723 0.3775075,0.688164 z M 7.1874924,56.50804 c -0.03563,0.095 0.00836,-0.0018 0.030339,-0.03552 0.061877,-0.09532 0.1268942,-0.18863 0.1922285,-0.281587 0.2546705,-0.362479 0.51816,-0.71889 0.7820025,-1.074737 h -3.52e-5 c 0.056903,-0.07669 0.040816,-0.184997 -0.035877,-0.241865 -0.047731,-0.03538 -0.1102431,-0.04378 -0.1655939,-0.02226 C 7.5663406,55.01685 7.1417372,55.18389 6.7285991,55.375166 6.4323364,55.512326 6.0816754,55.66589 5.9342495,55.97831 v 0 c -0.1604787,0.340078 -0.014922,0.745843 0.3251552,0.906357 0.3400777,0.160478 0.7458427,0.01489 0.9063567,-0.325191 0.00794,-0.01683 0.015169,-0.03397 0.02173,-0.05143 z"
       style="fill:#000000;fill-opacity:1;fill-rule:nonzero;stroke:none;stroke-width:0.35277775"
       id="path1388" />
    <path
       d="m 16.211548,50.648331 c 0.02688,0.04135 0.03478,0.107562 0.04209,0.156316 0.01796,0.120473 0.01813,0.243487 0.01217,0.364913 v 0 c -0.0042,0.08555 0.06177,0.158292 0.14732,0.162454 0.08555,0.0042 0.158291,-0.06174 0.162489,-0.147284 0.0059,-0.121215 0.0182,-0.243488 0.04822,-0.361315 0.01196,-0.04706 0.02674,-0.11236 0.05722,-0.149719 v 0 c 0.1016,-0.124566 0.08297,-0.307869 -0.04156,-0.409469 -0.124531,-0.1016 -0.30787,-0.08301 -0.40947,0.04152 -0.07997,0.09804 -0.08745,0.236502 -0.01849,0.342582 z m 0.01076,0.01545 v 0 c 0.09613,0.128799 0.278483,0.155293 0.407317,0.05916 0.01909,-0.01425 0.03637,-0.0308 0.05144,-0.04925 0.02339,-0.02868 0.04681,-0.05736 0.07042,-0.08583 0.0223,-0.02695 0.0418,-0.04724 0.06114,-0.07391 v 0 c 0.153833,-0.212478 0.106314,-0.509411 -0.106129,-0.663258 -0.212478,-0.153846 -0.509411,-0.106362 -0.663258,0.106116 -0.153846,0.212443 -0.106362,0.509411 0.106116,0.663257 0.02307,0.01669 0.04759,0.03129 0.07327,0.0436 z m 0.295064,0.06364 c 0.103046,-0.04269 0.202106,-0.09966 0.274743,-0.18609 v 0 c 0.03196,-0.03806 0.0581,-0.08068 0.07758,-0.126436 0.06886,-0.162031 0.0478,-0.34992 -0.04106,-0.499745 -0.0684,-0.115358 -0.174061,-0.205881 -0.296122,-0.260526 v 0 c -0.294428,-0.131869 -0.640045,-7.1e-5 -0.771913,0.294358 -0.131869,0.294463 -7.1e-5,0.640044 0.294393,0.771913 0.146685,0.06569 0.313937,0.06805 0.462386,0.0065 z m 0.0039,0.01517 c 0.03126,-0.02836 0.05824,-0.04346 0.09465,-0.06752 v 0 c 0.269134,-0.177906 0.343076,-0.540314 0.16517,-0.809449 -0.06114,-0.09246 -0.14732,-0.165664 -0.248497,-0.210961 -0.230328,-0.103187 -0.487785,-0.0611 -0.709012,0.04322 v -3.6e-5 c -0.317218,0.149613 -0.453143,0.528073 -0.30353,0.845326 0.149613,0.317253 0.528073,0.453143 0.84529,0.30353 0.05683,-0.02681 0.109397,-0.06188 0.155928,-0.104104 z m -0.253576,0.253083 c 0.0822,-0.0865 0.16517,-0.172861 0.253576,-0.253083 v 0 c 0.259751,-0.235726 0.279224,-0.637364 0.0435,-0.897114 -0.187713,-0.206834 -0.488527,-0.266771 -0.741186,-0.147602 -0.176883,0.0834 -0.334857,0.203729 -0.481613,0.331717 v 0 c -0.278715,0.24317 -0.307537,0.666221 -0.0644,0.94495 0.24317,0.27873 0.666221,0.307552 0.944951,0.06438 0.01574,-0.01369 0.0308,-0.02815 0.04516,-0.04325 z m -0.385481,0.426825 c 0.125871,-0.144603 0.253401,-0.287866 0.385481,-0.426825 v 0 c 0.254792,-0.268111 0.244032,-0.692009 -0.02404,-0.946856 -0.250542,-0.238125 -0.641208,-0.246485 -0.9017,-0.01923 -0.169403,0.147814 -0.327907,0.307975 -0.481224,0.472299 v 0 c -0.25908,0.277706 -0.243981,0.712823 0.03373,0.971903 0.277706,0.25908 0.712858,0.243945 0.971938,-0.03373 0.0054,-0.0058 0.01065,-0.01164 0.0158,-0.01757 z m -0.475474,0.59108 c 0.152647,-0.201577 0.309422,-0.400333 0.475474,-0.59108 v 0 c 0.24936,-0.286455 0.219303,-0.72083 -0.06715,-0.970173 -0.279506,-0.243347 -0.701534,-0.221404 -0.954335,0.04957 -0.192616,0.206445 -0.376802,0.420687 -0.556895,0.638104 v 0 c -0.247897,0.299297 -0.206234,0.74288 0.09306,0.990777 0.299297,0.247861 0.742844,0.206198 0.990741,-0.09306 0.0066,-0.0079 0.01291,-0.01595 0.01909,-0.02413 z m -0.496146,0.739034 c 0.152858,-0.254388 0.316971,-0.502356 0.496146,-0.739034 v 0 c 0.234579,-0.30981 0.173548,-0.75117 -0.136261,-0.985732 -0.30032,-0.227365 -0.726405,-0.177906 -0.966647,0.112148 -0.216182,0.261021 -0.421816,0.530719 -0.619442,0.806027 v 0 c -0.236538,0.32953 -0.161114,0.788388 0.168416,1.024925 0.32953,0.236502 0.788388,0.161114 1.024925,-0.168416 0.01161,-0.01619 0.02258,-0.03284 0.03284,-0.04992 z m -0.4472,0.808531 c 0.138394,-0.275237 0.288501,-0.544512 0.447181,-0.808531 v 0 c 0.20895,-0.347662 0.09648,-0.7989 -0.251178,-1.007851 -0.327836,-0.197026 -0.751981,-0.109467 -0.975007,0.20126 -0.209832,0.292347 -0.402731,0.597112 -0.572347,0.914576 v 0 c -0.198085,0.370735 -0.0581,0.831886 0.312632,1.02997 0.370769,0.19812 0.83192,0.05814 1.030005,-0.312631 0.0028,-0.0055 0.0059,-0.01115 0.0087,-0.01679 z m -0.303036,0.705097 c 0.08396,-0.241864 0.188101,-0.476461 0.303036,-0.705097 v 0 c 0.188806,-0.375567 0.03743,-0.833084 -0.338138,-1.021891 -0.369005,-0.185526 -0.818585,-0.04293 -1.013213,0.321345 -0.1524,0.285256 -0.290195,0.578944 -0.403613,0.88198 v 0 c -0.149437,0.399168 0.05302,0.84395 0.452226,0.993352 0.399203,0.149436 0.84395,-0.05302 0.993387,-0.452226 0.0021,-0.0058 0.0043,-0.01161 0.0063,-0.01746 z m -0.125554,0.528744 c 0.01834,-0.180587 0.06615,-0.357682 0.125554,-0.528744 v 0 c 0.13977,-0.402696 -0.07334,-0.842433 -0.476039,-0.982203 -0.395816,-0.137443 -0.828992,0.06611 -0.975889,0.45854 -0.107033,0.285891 -0.18736,0.583283 -0.221368,0.887166 v 0 c -0.04777,0.427143 0.25975,0.812165 0.686929,0.859966 0.427143,0.0478 0.812165,-0.25975 0.859966,-0.686929 2.91e-4,-0.0025 7.15e-4,-0.0052 7.15e-4,-0.0078 z m -1.527492,0.637998 v 0 c 0.08347,0.426332 0.496746,0.704321 0.923078,0.620854 0.426332,-0.08347 0.704321,-0.496711 0.620853,-0.923078 -0.0028,-0.01404 -0.0059,-0.02801 -0.0094,-0.04187 -0.02388,-0.0944 -0.01679,-0.198226 -0.0071,-0.293899 v 0 c 0.04352,-0.427602 -0.267876,-0.80952 -0.695477,-0.852982 -0.424569,-0.04318 -0.804722,0.263596 -0.852206,0.687705 -0.02984,0.266736 -0.03147,0.539045 0.02025,0.803275 z m 0,0 c 0.06805,0.347733 0.264936,0.655179 0.539926,0.8763 v 0 c 0.341454,0.274532 0.84081,0.220275 1.115342,-0.121179 0.274532,-0.341454 0.220274,-0.84081 -0.121179,-1.115342 -0.0021,-0.0018 -0.01595,-0.01648 -0.01062,-0.0085 0.01203,0.01799 0.02706,0.06674 -0.0046,-0.02903 v 0 c -0.136192,-0.412539 -0.581044,-0.636518 -0.993547,-0.50031 -0.376344,0.124283 -0.601451,0.509129 -0.525322,0.898065 z m 0.539926,0.8763 c 0.289419,0.232692 0.654826,0.343218 1.021256,0.369006 v 0 c 0.418324,0.02942 0.781333,-0.285821 0.810754,-0.704145 0.02572,-0.365054 -0.212619,-0.696524 -0.566879,-0.788352 -0.0914,-0.02371 -0.195685,-0.05253 -0.270968,-0.11303 v 0 c -0.341454,-0.274532 -0.840811,-0.220274 -1.115342,0.121179 -0.274532,0.341454 -0.220275,0.840811 0.121179,1.115342 z m 1.021256,0.369006 c 0.33207,0.02335 0.666292,-0.0041 0.993846,-0.06054 v 3.5e-5 c 0.378248,-0.06516 0.632072,-0.424568 0.566949,-0.802816 -0.05909,-0.343253 -0.36315,-0.589739 -0.7112,-0.576545 -0.202318,0.0077 -0.40894,-0.0018 -0.60572,-0.05263 v 0 c -0.405941,-0.105269 -0.820349,0.1385 -0.925618,0.544442 -0.105233,0.405976 0.138536,0.820385 0.544477,0.925618 0.04498,0.01164 0.09091,0.01916 0.137266,0.02244 z m 0.993846,-0.06054 c 0.394652,-0.06794 0.773959,-0.20888 1.129665,-0.390843 v 0 c 0.301731,-0.154375 0.421181,-0.524121 0.266806,-0.825852 -0.13455,-0.262996 -0.437374,-0.392818 -0.72062,-0.308892 -0.266453,0.07892 -0.541831,0.135713 -0.820102,0.146261 v 0 c -0.38354,0.01457 -0.68266,0.337256 -0.668126,0.720796 0.01453,0.38354 0.337256,0.68266 0.720796,0.668126 0.03069,-0.0011 0.06128,-0.0044 0.09158,-0.0096 z m 1.129665,-0.390843 c 0.278271,-0.142381 0.529519,-0.339019 0.771913,-0.534387 0.361315,-0.291183 0.707143,-0.601592 1.048032,-0.916235 v 0 c 0.06505,-0.06004 0.06911,-0.161466 0.0091,-0.226519 -0.0405,-0.04389 -0.102058,-0.0616 -0.159702,-0.046 -0.70866,0.191876 -1.419084,0.379836 -2.123123,0.588398 v 0 c -0.324978,0.09627 -0.510363,0.437727 -0.41409,0.762706 0.09624,0.324979 0.437727,0.510363 0.762705,0.414091 0.0363,-0.01072 0.07151,-0.02484 0.105199,-0.04205 z"
       style="fill:#000000;fill-opacity:1;fill-rule:nonzero;stroke:none;stroke-width:0.35277775"
       id="path1390" />
    <path
       d="m 25.876776,50.817347 c 0.01124,0.09994 0.0598,0.186266 0.112644,0.269487 0.04914,0.07736 0.101528,0.152753 0.154127,0.227824 v -3.6e-5 c 0.04914,0.07017 0.145839,0.08717 0.216006,0.03803 0.01474,-0.01037 0.02759,-0.02321 0.03796,-0.03796 0.04787,-0.06826 0.09581,-0.136419 0.144955,-0.203764 0.01304,-0.01792 0.02622,-0.03581 0.03972,-0.05341 0.02928,-0.03806 -0.04434,0.06311 0.0327,-0.03997 v 0 c 0.136002,-0.181962 0.09871,-0.439666 -0.08321,-0.575662 -0.181928,-0.13596 -0.439666,-0.09871 -0.575628,0.08326 -0.06262,0.08378 -0.09095,0.188277 -0.07927,0.292206 z m 0,0 v 0 c 0.02304,0.204576 0.193781,0.360609 0.399592,0.36516 l -7.1e-5,-1.06e-4 c 0.249766,0.04135 0.48574,-0.127599 0.527087,-0.377366 0.04138,-0.249767 -0.127566,-0.48574 -0.377333,-0.527121 -0.110419,-0.01827 -0.223695,0.0045 -0.318521,0.06396 -0.161714,0.101495 -0.252095,0.285856 -0.230754,0.475473 z m 0.03196,0.02999 c -2.65e-4,0.01115 -0.0011,0.02222 -0.0013,0.03337 h 3.4e-5 c -0.01439,0.26804 0.191278,0.496993 0.459317,0.511351 0.268076,0.01436 0.496993,-0.191276 0.511352,-0.459352 0.0061,-0.114088 -0.0036,-0.230505 -0.04667,-0.337326 -0.04645,-0.115006 -0.130762,-0.213431 -0.241218,-0.271251 -0.151341,-0.0792 -0.337608,-0.07317 -0.482494,0.01774 v 0 c -0.17004,0.10668 -0.250896,0.311573 -0.199496,0.505636 l 7.94e-4,-1.76e-4 z m 0.837602,0.600639 c 0.07782,-0.160972 0.122027,-0.336797 0.131621,-0.515232 h -3.4e-5 c 0.01439,-0.26804 -0.191241,-0.496993 -0.459317,-0.511386 -0.268041,-0.01436 -0.496993,0.191276 -0.511352,0.459316 -0.0024,0.04791 -0.01386,0.0949 -0.03531,0.137901 v 0 c -0.120015,0.240736 -0.02215,0.533224 0.21858,0.653239 0.240736,0.120015 0.533188,0.02215 0.653203,-0.218581 7.94e-4,-0.0018 0.0019,-0.0035 0.0024,-0.0053 z m -0.211281,0.376979 c 0.07677,-0.121956 0.148521,-0.247227 0.211281,-0.377014 v 0 c 0.117122,-0.242182 0.01574,-0.533435 -0.226447,-0.650522 -0.240136,-0.116135 -0.528955,-0.01753 -0.647946,0.221192 -0.04904,0.09835 -0.104564,0.193428 -0.16309,0.286385 v 0 c -0.143581,0.228141 -0.07504,0.529519 0.153141,0.673099 0.22814,0.143581 0.529484,0.075 0.673063,-0.15314 0,0 0,0 0,0 z m -0.287404,0.410809 c 0.101388,-0.132926 0.198366,-0.26931 0.287406,-0.410809 v 0 c 0.143582,-0.228142 0.07504,-0.52952 -0.153141,-0.6731 -0.228139,-0.143546 -0.529484,-0.075 -0.673063,0.153141 -0.07811,0.124107 -0.159138,0.246344 -0.24176,0.367453 v 0 c -0.149823,0.219675 -0.0932,0.519218 0.126437,0.669043 0.211489,0.144251 0.498863,0.09779 0.654121,-0.105728 z m -0.352531,0.422734 c 0.123365,-0.13589 0.241229,-0.276789 0.352531,-0.422769 v 0 c 0.16129,-0.21142 0.120613,-0.513538 -0.09084,-0.674793 -0.211418,-0.161255 -0.513538,-0.12058 -0.674793,0.09084 -0.0052,0.0068 -0.01013,0.01365 -0.01492,0.02071 -0.09282,0.136031 -0.188066,0.270404 -0.285467,0.403189 v 0 c -0.150671,0.205423 -0.106292,0.494066 0.09913,0.644737 0.190428,0.1397 0.455612,0.112995 0.614362,-0.06191 z m -0.549487,0.597747 c 0.183762,-0.198685 0.36756,-0.397334 0.549487,-0.597747 v 0 c 0.171201,-0.188595 0.157091,-0.480342 -0.03154,-0.651545 -0.188632,-0.171239 -0.480343,-0.157128 -0.651546,0.0315 -0.0108,0.01189 -0.02092,0.02431 -0.03041,0.03722 -0.15367,0.209515 -0.321133,0.409257 -0.487327,0.608824 v -3.5e-5 c -0.153247,0.183973 -0.128305,0.457305 0.05563,0.610552 0.177271,0.147637 0.439067,0.130598 0.595701,-0.03877 z m -0.578274,0.57919 c 0.208774,-0.17459 0.393912,-0.379836 0.578274,-0.57919 v 0 c 0.16256,-0.175754 0.151834,-0.450039 -0.02392,-0.612599 -0.175755,-0.16256 -0.450039,-0.151836 -0.612599,0.02392 -0.0051,0.0055 -0.01002,0.01115 -0.01482,0.0169 -0.177094,0.212619 -0.362656,0.42926 -0.500733,0.670242 v 0 c -0.104422,0.18221 -0.04134,0.414549 0.140864,0.518937 0.138078,0.07913 0.310833,0.06389 0.432929,-0.03821 z m -0.232269,0.224437 c 0.06957,-0.08227 0.149755,-0.155469 0.232269,-0.224437 v 0 c 0.161114,-0.134726 0.182492,-0.374509 0.04777,-0.535622 -0.13469,-0.161079 -0.374473,-0.182457 -0.535587,-0.04777 -0.0345,0.02886 -0.06361,0.06364 -0.08597,0.102659 -0.06255,0.109114 -0.125589,0.217911 -0.189935,0.325931 v 0 c -0.0926,0.155399 -0.0417,0.356447 0.1137,0.449051 0.137583,0.08199 0.31429,0.05246 0.417759,-0.06981 z m -0.140264,0.185808 c 0.0412,-0.06576 0.09024,-0.126647 0.140264,-0.185808 v 0 c 0.11684,-0.138112 0.09959,-0.344805 -0.03852,-0.461645 -0.138112,-0.11684 -0.34477,-0.09959 -0.461645,0.03852 -0.01161,0.01372 -0.02208,0.0284 -0.03129,0.04389 -0.05147,0.08636 -0.101424,0.173849 -0.146262,0.263913 v 0 c -0.07585,0.152506 -0.01376,0.337609 0.138747,0.413491 0.142029,0.07066 0.314467,0.02205 0.39871,-0.11236 z m -0.06678,0.163301 c 0.01598,-0.05627 0.03556,-0.113488 0.06678,-0.163336 v 0 c 0.09045,-0.144321 0.04674,-0.334645 -0.09761,-0.425062 -0.144321,-0.09042 -0.334645,-0.04671 -0.425062,0.09761 -0.0054,0.0085 -0.01027,0.01736 -0.01478,0.02635 -0.0514,0.103364 -0.08361,0.215406 -0.104987,0.328542 v 0 c -0.03034,0.160655 0.07528,0.315489 0.235938,0.345863 0.150495,0.02843 0.297851,-0.06265 0.339725,-0.209973 z m -0.138959,0.321734 v 0 c 0.135467,-0.03076 0.220345,-0.165559 0.189583,-0.301026 -0.0073,-0.03193 -0.02067,-0.06216 -0.03951,-0.08897 l -1.42e-4,3.18e-4 c 0.0072,-0.163336 -0.119415,-0.301554 -0.282751,-0.308716 -0.147073,-0.0065 -0.276542,0.09613 -0.303883,0.240771 -0.02427,0.128411 3.18e-4,0.266806 0.09352,0.363361 0.08925,0.09243 0.220133,0.122202 0.343182,0.09426 z m -3.5e-5,0 c 0.08396,-0.01905 0.167252,-0.04089 0.249872,-0.06502 v 0 c 0.109608,-0.03207 0.172473,-0.146862 0.140441,-0.256435 -0.02949,-0.100894 -0.130034,-0.163618 -0.233609,-0.145732 -0.03912,0.0068 -0.08026,0.0041 -0.117229,-0.01097 v 0 c -0.128587,-0.05256 -0.275448,0.0091 -0.328012,0.137654 -0.05256,0.128623 0.0091,0.275484 0.137654,0.328048 0.04784,0.01955 0.100506,0.02388 0.150883,0.01245 z m 0.249907,-0.06505 c 0.09003,-0.02632 0.179811,-0.05355 0.269452,-0.08128 v -3.5e-5 c 0.107456,-0.03327 0.167605,-0.147356 0.134303,-0.254812 -0.03327,-0.107456 -0.147356,-0.167605 -0.254812,-0.134302 -0.0035,0.0011 -0.0069,0.0021 -0.01037,0.0035 -0.07525,0.02783 -0.152612,0.05115 -0.231775,0.0648 v 0 c -0.112501,0.01944 -0.18796,0.126365 -0.168558,0.238901 0.01944,0.1125 0.126401,0.18796 0.238901,0.168557 0.0077,-0.0014 0.01535,-0.0032 0.02286,-0.0053 v -3.5e-5 z m 0.269452,-0.08128 c 0.08855,-0.02745 0.179176,-0.04794 0.270828,-0.06198 v 0 c 0.124318,-0.01902 0.209691,-0.135255 0.190676,-0.25961 -0.01905,-0.124354 -0.13529,-0.209726 -0.259609,-0.190676 -0.01905,0.0028 -0.03764,0.0082 -0.05532,0.0158 -0.09155,0.03926 -0.184044,0.07627 -0.277459,0.110807 v 0 c -0.105516,0.03902 -0.159421,0.156175 -0.120439,0.261691 0.03754,0.101529 0.14792,0.155963 0.251319,0.123931 z m 0.270828,-0.06198 c 0.09243,-0.01415 0.185596,-0.02342 0.279046,-0.02716 v 0 c 0.145944,-0.0059 0.25954,-0.128941 0.253682,-0.27492 -0.0058,-0.14598 -0.128939,-0.259574 -0.274918,-0.253718 -0.0194,7.15e-4 -0.0387,0.0037 -0.0575,0.0087 -0.110772,0.02953 -0.219216,0.06742 -0.324556,0.112607 v 0 c -0.11564,0.0496 -0.169157,0.183515 -0.119556,0.29912 0.04092,0.09543 0.141182,0.151095 0.243805,0.135361 z m 0.279046,-0.02716 c 0.126402,-0.0051 0.256117,0.0205 0.379696,0.04339 v 0 c 0.18415,0.03418 0.361103,-0.08738 0.395287,-0.271498 0.03415,-0.18415 -0.08742,-0.361103 -0.271534,-0.395288 -0.04304,-0.008 -0.08717,-0.0075 -0.130032,0.0014 -0.151273,0.03104 -0.302861,0.06248 -0.452156,0.102235 v 0 c -0.141147,0.03761 -0.225108,0.182563 -0.187502,0.323709 0.03189,0.119662 0.142487,0.20119 0.266241,0.196215 z m 0.379696,0.04339 c 0.101951,0.01894 0.218193,0.03768 0.309914,0.08957 v 0 c 0.205354,0.116205 0.466021,0.04396 0.582226,-0.161396 0.116205,-0.205317 0.04392,-0.465984 -0.161396,-0.582189 -0.04565,-0.02582 -0.09564,-0.04304 -0.147531,-0.05076 -0.195652,-0.0291 -0.39737,-1.77e-4 -0.589492,0.03923 v 0 c -0.183446,0.03764 -0.301662,0.216888 -0.26402,0.400332 0.02776,0.135184 0.13462,0.240065 0.270299,0.265218 z m 0.309951,0.08961 c 0.132784,0.07514 0.262784,0.155257 0.392605,0.235373 v 0 c 0.229801,0.141781 0.531071,0.07045 0.672854,-0.159385 0.141816,-0.2298 0.07045,-0.531036 -0.159351,-0.672853 -0.02787,-0.01718 -0.0574,-0.03154 -0.08816,-0.04283 -0.176459,-0.06484 -0.358103,-0.12693 -0.544687,-0.154693 v 0 c -0.233363,-0.03471 -0.45071,0.126329 -0.485423,0.359692 -0.02604,0.174837 0.05831,0.347627 0.212161,0.434657 z m 0.392605,0.235373 c 0.157411,0.09712 0.3181,0.192475 0.488103,0.266065 v 0 c 0.263773,0.114158 0.570123,-0.0071 0.684283,-0.270828 0.11416,-0.263737 -0.0071,-0.570089 -0.270828,-0.684284 -0.156387,-0.06766 -0.316301,-0.127282 -0.476215,-0.186019 v 0 c -0.253471,-0.09313 -0.534422,0.03686 -0.627555,0.290336 -0.08015,0.218193 0.0044,0.462668 0.202211,0.584729 z m 0.48814,0.266065 c 0.139912,0.06057 0.28656,0.105198 0.436351,0.133526 v 0 c 0.278834,0.05271 0.547581,-0.130563 0.600321,-0.409398 0.04992,-0.263984 -0.111972,-0.521829 -0.371404,-0.591609 -0.0859,-0.02314 -0.170217,-0.05228 -0.251883,-0.08763 v 0 c -0.263737,-0.114159 -0.57009,0.0071 -0.68425,0.270863 -0.114157,0.263737 0.0071,0.570089 0.270865,0.684248 0,0 0,0 0,0 z m 0.436351,0.133526 c 0.143968,0.02724 0.290195,0.04173 0.436631,0.04512 v 0 c 0.278413,0.0064 0.509307,-0.214065 0.515726,-0.492478 0.0063,-0.272027 -0.204433,-0.499992 -0.476107,-0.515091 -0.08343,-0.0046 -0.166582,-0.01686 -0.247333,-0.03856 h 3.5e-5 c -0.274037,-0.07373 -0.555943,0.08865 -0.629637,0.362691 -0.0737,0.274003 0.08869,0.555907 0.362691,0.629603 0.01257,0.0035 0.02521,0.0063 0.03799,0.0087 z m 0.436631,0.04512 c 0.170392,0.0039 0.341067,-0.01644 0.506555,-0.0568 v 0 c 0.252376,-0.06149 0.407141,-0.315983 0.345615,-0.56836 -0.04844,-0.198791 -0.21985,-0.343465 -0.423968,-0.357823 -0.129503,-0.0091 -0.259009,-0.01739 -0.388583,-0.02459 v 0 c -0.278061,-0.01545 -0.516009,0.19745 -0.531461,0.47551 -0.01545,0.278059 0.197451,0.515973 0.475509,0.531424 0.0054,3.18e-4 0.01088,3.44e-4 0.01633,7.15e-4 z m 0.506554,-0.0568 c 0.178893,-0.04357 0.349708,-0.115993 0.510787,-0.204505 v 0 c 0.200694,-0.110278 0.274002,-0.362409 0.163724,-0.563104 -0.09454,-0.172085 -0.296863,-0.254282 -0.484646,-0.19685 -0.08618,0.02635 -0.177731,0.04463 -0.268218,0.03828 v 0 c -0.259149,-0.01824 -0.48401,0.177059 -0.502214,0.43621 -0.01823,0.259115 0.177059,0.483976 0.436211,0.502179 0.04843,0.0035 0.09716,-7.14e-4 0.144356,-0.01221 z m 0.510787,-0.204505 c 0.161112,-0.08855 0.296298,-0.226801 0.424743,-0.355953 0.203907,-0.205034 0.396806,-0.421005 0.587375,-0.638386 v 0 c 0.05309,-0.06054 0.04703,-0.152682 -0.01352,-0.205776 -0.04191,-0.03672 -0.101108,-0.04639 -0.152506,-0.02484 -0.26007,0.108938 -0.520525,0.217276 -0.782603,0.321381 -0.126717,0.05034 -0.253894,0.103682 -0.384421,0.143616 v 0 c -0.219006,0.06696 -0.342265,0.298767 -0.27531,0.517772 0.06696,0.219004 0.298805,0.342265 0.517808,0.275308 0.0272,-0.0083 0.05348,-0.01944 0.07842,-0.03313 z"
       style="fill:#000000;fill-opacity:1;fill-rule:nonzero;stroke:none;stroke-width:0.35277775"
       id="path1392" />
    <path
       d="m 31.473915,50.091436 v 0 c 0.04099,-0.0617 0.03267,-0.143757 -0.0199,-0.195933 -0.05002,-0.04964 -0.105024,-0.095 -0.171275,-0.121108 -0.165981,-0.06548 -0.351296,0.0028 -0.459,0.139276 v 0 c -0.125341,0.158821 -0.09821,0.38922 0.06061,0.514562 0.158821,0.125377 0.389183,0.09825 0.514561,-0.06057 0.06159,-0.07807 0.08883,-0.1778 0.07546,-0.276331 l -2.64e-4,1.06e-4 z m 0.02072,0.42859 c 0.03143,-0.168593 0.02011,-0.346816 -0.04018,-0.507859 v 0 c -0.07095,-0.189477 -0.282083,-0.285574 -0.471593,-0.21463 -0.06262,0.02346 -0.117653,0.06364 -0.159105,0.116134 -0.09437,0.119592 -0.161748,0.260209 -0.201575,0.406965 v 0 c -0.06477,0.238689 0.07623,0.484716 0.31496,0.549486 0.238688,0.06477 0.484716,-0.07624 0.549449,-0.31496 0.0032,-0.01161 0.0058,-0.02332 0.008,-0.03514 z m -0.107172,0.413032 c 0.04233,-0.135714 0.0811,-0.273156 0.107172,-0.413032 v 0 C 31.54,50.276856 31.379628,50.043 31.136491,49.997668 c -0.229375,-0.04279 -0.453178,0.09775 -0.514312,0.322968 -0.02981,0.10989 -0.06608,0.218016 -0.103577,0.325472 v 0 c -0.08322,0.238619 0.04276,0.499499 0.281339,0.582754 0.23862,0.08322 0.499534,-0.04276 0.582756,-0.28134 0.0019,-0.0048 0.0032,-0.0096 0.0048,-0.01446 z m -0.304519,0.717938 c 0.112606,-0.233116 0.227261,-0.470182 0.304519,-0.717938 v 0 c 0.07524,-0.24123 -0.05931,-0.497805 -0.300536,-0.573052 -0.235585,-0.07348 -0.487011,0.05309 -0.568325,0.286102 -0.07133,0.204576 -0.173037,0.400227 -0.270227,0.593267 v 0 c -0.115535,0.229517 -0.0231,0.50927 0.20641,0.624805 0.229518,0.115534 0.50927,0.02311 0.624805,-0.206411 0.0011,-0.0021 0.0021,-0.0045 0.0032,-0.0068 z m -0.419664,0.84014 c 0.144005,-0.277989 0.283456,-0.558271 0.419664,-0.84014 v 0 c 0.111756,-0.231387 0.01481,-0.509588 -0.216539,-0.621348 -0.22874,-0.110525 -0.503801,-0.01714 -0.61803,0.209727 -0.134302,0.266841 -0.275627,0.53026 -0.426474,0.788176 v 0 c -0.13395,0.229059 -0.0569,0.523346 0.172157,0.657331 0.229057,0.133949 0.523346,0.05687 0.657331,-0.172191 0.0042,-0.0071 0.0081,-0.01429 0.01188,-0.02156 z m -0.425102,0.807156 c 0.143404,-0.268147 0.285221,-0.537175 0.425098,-0.807156 v 0 c 0.12206,-0.23562 0.02998,-0.525603 -0.205634,-0.647629 -0.227118,-0.117652 -0.50659,-0.03676 -0.635741,0.184044 -0.14718,0.251672 -0.303106,0.498193 -0.465807,0.740093 v 0 c -0.158821,0.236184 -0.0961,0.556401 0.140052,0.715221 0.236186,0.158821 0.5564,0.09613 0.715222,-0.140053 0.0097,-0.01439 0.01863,-0.02925 0.02681,-0.04452 z m -0.469477,0.842786 c 0.161185,-0.278307 0.317784,-0.559223 0.469477,-0.842786 v 0 c 0.134234,-0.250966 0.03958,-0.563245 -0.211383,-0.697477 -0.233257,-0.124778 -0.5231,-0.05267 -0.670701,0.166829 -0.177096,0.263348 -0.352814,0.527578 -0.527227,0.792691 v 0 c -0.16778,0.254952 -0.09712,0.597641 0.157869,0.765422 0.254953,0.167746 0.597641,0.09708 0.765421,-0.157868 0.0057,-0.0088 0.0113,-0.01775 0.01654,-0.02681 z m -0.489055,0.820949 c 0.166513,-0.271568 0.329424,-0.545324 0.489055,-0.820985 v 0 c 0.152967,-0.264089 0.06287,-0.602191 -0.201257,-0.755156 -0.253508,-0.146826 -0.57757,-0.07031 -0.738611,0.174449 -0.171556,0.260703 -0.344242,0.5207 -0.51816,0.779815 v 0 c -0.177237,0.264055 -0.106858,0.621771 0.157197,0.799007 0.264019,0.177235 0.62177,0.106856 0.79897,-0.157198 0.0044,-0.0066 0.0087,-0.0132 0.01281,-0.01993 z m -0.66248,1.064472 c 0.22225,-0.353942 0.44404,-0.708167 0.66248,-1.064472 v 0 c 0.166229,-0.27111 0.08117,-0.625616 -0.189934,-0.791845 -0.263245,-0.161396 -0.606954,-0.08643 -0.779039,0.169968 -0.228778,0.340819 -0.465844,0.676099 -0.703829,1.010532 v 0 c -0.194696,0.273579 -0.130704,0.653204 0.142875,0.847902 0.273579,0.194698 0.653203,0.130704 0.847902,-0.142875 0.0068,-0.0096 0.01331,-0.0193 0.01955,-0.02921 z m -0.579157,0.911648 c 0.197379,-0.301061 0.387739,-0.606778 0.579157,-0.911648 v 0 c 0.178541,-0.284374 0.09278,-0.659659 -0.19163,-0.838236 -0.272804,-0.171308 -0.631896,-0.100083 -0.818692,0.162419 -0.210854,0.296263 -0.424214,0.591644 -0.623676,0.895844 v -3.5e-5 c -0.190958,0.291288 -0.109678,0.682272 0.18161,0.873231 0.291291,0.190994 0.682239,0.109714 0.873231,-0.181575 z m -0.244793,0.388302 c 0.07828,-0.13148 0.160904,-0.26035 0.244793,-0.388337 v 0 c 0.190995,-0.291254 0.10968,-0.682237 -0.18161,-0.873231 -0.291288,-0.190959 -0.682236,-0.109644 -0.873231,0.181645 0,0 0,0 0,0 -0.09814,0.149684 -0.193074,0.301801 -0.278834,0.458964 v 0 c -0.16584,0.303918 -0.05391,0.684706 0.250013,0.850512 0.295876,0.161466 0.666433,0.06004 0.838869,-0.229553 z m -0.109995,0.223767 c 0.02836,-0.07818 0.06752,-0.1524 0.109995,-0.223767 v 0 c 0.177131,-0.297462 0.07959,-0.682166 -0.217873,-0.859296 -0.297463,-0.177129 -0.682202,-0.07959 -0.859333,0.217876 -0.004,0.0067 -0.0079,0.01355 -0.01167,0.02046 -0.06809,0.124777 -0.131939,0.252024 -0.188103,0.382693 v -3.5e-5 c -0.136876,0.318594 0.01037,0.687811 0.328967,0.824724 0.318559,0.136878 0.687774,-0.01041 0.824688,-0.328965 0.0048,-0.01111 0.0092,-0.02233 0.01333,-0.03369 z m -1.03872,0.360398 v -3.5e-5 c 0.02402,0.02209 0.04974,0.04223 0.07698,0.06018 l -7.1e-5,1.06e-4 c 0.03309,0.02194 0.0683,0.0406 0.105021,0.05574 l 0.149648,0.04064 c 0.171909,0.02374 0.345756,-0.02723 0.47759,-0.140053 0.117509,-0.100542 0.178295,-0.235727 0.229552,-0.376979 v 0 c 0.118288,-0.325931 -0.05006,-0.686047 -0.375991,-0.804333 -0.312701,-0.113489 -0.659659,0.03665 -0.790999,0.342265 -0.03411,0.07941 -0.05986,0.162666 -0.07098,0.248532 -0.02727,0.210679 0.04071,0.428096 0.199247,0.573934 z m 1.00951,-0.424215 c 0.02141,-0.203341 0.05923,-0.405765 0.09204,-0.607413 v 0 c 0.01323,-0.08114 -0.04184,-0.157621 -0.122978,-0.170815 -0.02706,-0.0044 -0.05479,-0.0014 -0.08015,0.0091 -0.157091,0.0641 -0.315347,0.130281 -0.478224,0.178647 v -2.12e-4 c -0.317995,0.0078 -0.569383,0.271956 -0.561552,0.589915 0.0078,0.317958 0.271955,0.569383 0.589915,0.561552 0.306634,-0.0076 0.553543,-0.254106 0.561515,-0.560741 h -7.94e-4 z"
       style="fill:#000000;fill-opacity:1;fill-rule:nonzero;stroke:none;stroke-width:0.35277775"
       id="path1394" />
    <path
       d="m 34.803606,52.315418 c -0.01281,-0.01436 0.0021,0.005 0.0054,0.0103 0.01421,0.0236 0.02685,0.04822 0.03902,0.07295 0.04674,0.0949 0.08657,0.193251 0.124989,0.291747 v 0 c 0.03108,0.0798 0.121002,0.119274 0.2008,0.08819 0.03874,-0.0151 0.06982,-0.04516 0.08622,-0.08336 0.07436,-0.173426 0.155821,-0.348403 0.209302,-0.529802 v 0 c 0.061,-0.206869 -0.05726,-0.424039 -0.26416,-0.485034 -0.206868,-0.06099 -0.424038,0.05726 -0.485035,0.264125 -0.03827,0.129751 -0.0067,0.270051 0.08354,0.37084 z m -0.09737,-0.09088 c 0.0357,0.02653 0.06777,0.05775 0.0974,0.09088 v 0 c 0.14379,0.160725 0.3907,0.174448 0.55146,0.03066 0.05412,-0.04844 0.09366,-0.110984 0.114195,-0.180622 0.03768,-0.127882 0.05313,-0.262397 0.04001,-0.395323 v 0 c -0.02741,-0.277248 -0.274355,-0.479813 -0.551638,-0.452438 -0.277249,0.02741 -0.479814,0.274356 -0.452438,0.551639 0.01397,0.141429 0.08696,0.270404 0.201012,0.355212 z m 0.04124,0.03588 c 0.114194,0.01746 0.03972,0.0032 0.01439,-0.0061 -0.0088,-0.0032 -0.01744,-0.007 -0.02574,-0.01132 -0.0066,-0.0035 -0.03418,-0.02074 -0.01061,-0.0049 v 0 c 0.231106,0.155645 0.544584,0.09444 0.700194,-0.136667 0.06558,-0.09737 0.09514,-0.214559 0.08361,-0.331399 -0.02331,-0.235902 -0.156668,-0.447287 -0.354682,-0.576368 v 0 c -0.270264,-0.176107 -0.632108,-0.0998 -0.808215,0.170427 -0.176141,0.270263 -0.09983,0.632107 0.170429,0.808214 0.06971,0.04544 0.148341,0.07546 0.230645,0.08805 z m -0.04819,0.01019 c 0.04018,-0.0046 0.08089,-0.0048 0.121248,-0.0037 v 0 c 0.32244,0.0084 0.590656,-0.246204 0.599054,-0.568678 0.0053,-0.202741 -0.09504,-0.393735 -0.264972,-0.504507 -0.145733,-0.09497 -0.31355,-0.156775 -0.487858,-0.167429 v 0 c -0.344376,-0.0211 -0.640673,0.241014 -0.661733,0.585396 -0.02109,0.344417 0.240982,0.640679 0.585398,0.661775 0.0363,0.0021 0.07274,0.0014 0.108868,-0.0028 z m -0.03454,0.05278 c 0.02368,-0.01542 0.04756,-0.03045 0.0719,-0.04477 0.03037,-0.01785 0.05069,-0.02336 0.08601,-0.03489 v 0 c 0.327977,-0.107174 0.506979,-0.459952 0.399804,-0.787929 -0.07962,-0.243593 -0.299897,-0.413844 -0.555697,-0.429507 -0.233785,-0.01432 -0.456247,0.08241 -0.657717,0.190747 v 0 c -0.313055,0.168345 -0.430355,0.558588 -0.262009,0.871643 0.168347,0.313055 0.558589,0.430354 0.871644,0.262008 0.01574,-0.0085 0.03111,-0.01757 0.04607,-0.0273 z m -0.350371,0.26363 c 0.110914,-0.09536 0.227754,-0.183903 0.350378,-0.26363 v 0 c 0.297957,-0.193816 0.382412,-0.592455 0.188595,-0.890412 -0.182457,-0.280564 -0.549556,-0.374438 -0.844302,-0.215935 -0.186938,0.100542 -0.364738,0.217735 -0.531989,0.348333 h 3.4e-5 c -0.287584,0.224578 -0.33863,0.639763 -0.114051,0.927312 0.224578,0.287549 0.639762,0.338631 0.927311,0.114017 0.0082,-0.0063 0.01619,-0.01291 0.02405,-0.01968 z m -0.445523,0.405765 c 0.145661,-0.138289 0.293229,-0.274814 0.445558,-0.405765 v 0 c 0.276683,-0.237842 0.308152,-0.654967 0.07027,-0.93165 -0.229976,-0.267512 -0.629568,-0.307129 -0.907626,-0.08999 -0.18341,0.143263 -0.357154,0.298768 -0.526169,0.458646 l 3.7e-5,3.6e-5 c -0.267724,0.253259 -0.279472,0.675569 -0.02622,0.943292 0.25326,0.267723 0.675606,0.279435 0.943327,0.02617 2.65e-4,-2.47e-4 7.94e-4,-3.44e-4 7.94e-4,-7.14e-4 z m -0.512411,0.534706 c 0.163618,-0.184891 0.333306,-0.364737 0.512411,-0.534706 v 0 c 0.2673,-0.253717 0.278307,-0.676063 0.02463,-0.943363 -0.253436,-0.266982 -0.675182,-0.278341 -0.942588,-0.02537 -0.204928,0.193852 -0.40132,0.396628 -0.592032,0.60445 v 3.5e-5 c -0.250682,0.273226 -0.23241,0.697971 0.04085,0.94869 0.273227,0.250684 0.69797,0.23241 0.94869,-0.04082 0.0028,-0.0028 0.0054,-0.0059 0.008,-0.0089 z m -0.524015,0.648793 c 0.165452,-0.22352 0.33969,-0.440549 0.524015,-0.648793 v 0 c 0.245782,-0.277672 0.219922,-0.702028 -0.05778,-0.947808 -0.274177,-0.242676 -0.692219,-0.220945 -0.939763,0.04886 -0.217276,0.236749 -0.420899,0.485881 -0.612071,0.74415 v 0 c -0.221896,0.29979 -0.15875,0.7227 0.141041,0.944598 0.299755,0.221897 0.722665,0.15875 0.944563,-0.141006 z m -0.435822,0.685271 c 0.128447,-0.238584 0.274638,-0.467501 0.435822,-0.685271 v 0 c 0.221898,-0.29979 0.158784,-0.7227 -0.141005,-0.944598 -0.299791,-0.221897 -0.722667,-0.15875 -0.944599,0.141006 0,0 0,0 0,0 -0.200412,0.270757 -0.381175,0.556083 -0.539009,0.853722 v 0 c -0.174377,0.328824 -0.04914,0.736741 0.279683,0.911119 0.327377,0.173602 0.733496,0.05031 0.909108,-0.275978 z m -0.311891,0.694831 c 0.08548,-0.239324 0.191487,-0.471099 0.311925,-0.694831 v 0 c 0.17639,-0.32773 0.05373,-0.736424 -0.274036,-0.912848 -0.327732,-0.176389 -0.736423,-0.05373 -0.912813,0.274038 -7.94e-4,0.0011 -0.0013,0.0025 -0.0021,0.0037 -0.152188,0.287055 -0.283281,0.585611 -0.386045,0.893939 v 0 c -0.116697,0.350026 0.0725,0.72838 0.422523,0.845079 0.344768,0.1149 0.718148,-0.06682 0.840386,-0.409046 h 3.7e-5 z m -0.155011,0.58995 c 0.02907,-0.201506 0.08661,-0.398568 0.155011,-0.58995 h -3.4e-5 c 0.124142,-0.347451 -0.0569,-0.729756 -0.404355,-0.853898 -0.347451,-0.124143 -0.729755,0.0569 -0.853898,0.404353 -0.0019,0.0045 -0.0032,0.009 -0.0047,0.01351 -0.09183,0.275449 -0.164995,0.558377 -0.202319,0.846632 v 0 c -0.04696,0.362197 0.208632,0.693808 0.570793,0.740727 0.358495,0.04646 0.687848,-0.203588 0.739458,-0.561375 z m -1.342179,0.522782 v 0 c 0.02151,0.359939 0.33073,0.634294 0.690669,0.61281 0.347805,-0.02078 0.618032,-0.311044 0.613905,-0.659447 -0.0019,-0.15928 0.0149,-0.3187 0.0376,-0.476145 v 0 c 0.05214,-0.361456 -0.198612,-0.696736 -0.56007,-0.748876 -0.36149,-0.05214 -0.69677,0.198614 -0.748911,0.56007 -2.65e-4,0.0032 -7.94e-4,0.0063 -0.0013,0.0095 -0.03013,0.23241 -0.0459,0.467889 -0.03193,0.702133 z m 0,0 c 0.0176,0.294287 0.123862,0.579296 0.317114,0.803557 h -3.7e-5 c 0.22846,0.265077 0.62851,0.294816 0.893622,0.06639 0.243134,-0.20955 0.291219,-0.567831 0.111866,-0.834037 -0.01595,-0.02363 -0.01767,-0.05503 -0.01799,-0.08255 v 0 c -0.0043,-0.360574 -0.300004,-0.649393 -0.660578,-0.645125 -0.360537,0.0043 -0.649356,0.300003 -0.645088,0.660577 1.06e-4,0.01041 2.64e-4,0.02082 0.0011,0.03119 z m 0.317114,0.803557 c 0.191627,0.222391 0.457518,0.366254 0.744678,0.420899 v 3.5e-5 c 0.317111,0.06036 0.623147,-0.147813 0.683506,-0.464925 0.04851,-0.254776 -0.07666,-0.510999 -0.307409,-0.629391 -0.04459,-0.02286 -0.08699,-0.05218 -0.115358,-0.09426 v 0 c -0.195511,-0.290195 -0.58928,-0.36696 -0.879475,-0.171415 -0.290232,0.195545 -0.366961,0.58928 -0.17145,0.87951 0.01397,0.02071 0.02917,0.0406 0.04551,0.05955 z m 0.744678,0.420899 c 0.243594,0.04639 0.494347,0.04293 0.739915,0.01489 v 0 c 0.28547,-0.0326 0.490432,-0.290442 0.457835,-0.57591 -0.02875,-0.251565 -0.234421,-0.445911 -0.48722,-0.460339 -0.112008,-0.0064 -0.233082,-0.02092 -0.334433,-0.07292 v 0 c -0.287232,-0.14732 -0.639516,-0.03394 -0.786871,0.253295 -0.147357,0.287232 -0.03397,0.639515 0.253259,0.786871 0.04967,0.02547 0.102693,0.04371 0.157515,0.05415 z m 0.739915,0.01489 c 0.305753,-0.03493 0.598101,-0.145027 0.863706,-0.298168 v 0 c 0.218794,-0.126118 0.293936,-0.405765 0.167817,-0.624557 -0.110948,-0.192441 -0.344098,-0.277319 -0.552767,-0.20126 -0.161891,0.05898 -0.334963,0.09761 -0.508141,0.08774 v 0 c -0.286845,-0.0164 -0.532659,0.202882 -0.549028,0.489726 -0.0164,0.286843 0.202848,0.532659 0.489725,0.549028 0.02956,0.0018 0.05923,7.14e-4 0.08869,-0.0025 z m 0.863706,-0.298168 c 0.263808,-0.152082 0.509447,-0.334468 0.736248,-0.537421 v 0 c 0.164076,-0.146791 0.178083,-0.398851 0.03126,-0.562928 -0.135324,-0.151236 -0.362725,-0.176671 -0.528108,-0.05906 -0.192791,0.13709 -0.401812,0.252483 -0.624345,0.333587 v 0 c -0.237313,0.08647 -0.359551,0.348932 -0.273085,0.586211 0.0865,0.237313 0.348967,0.359551 0.586246,0.273085 0.02484,-0.0091 0.04886,-0.02025 0.07179,-0.03348 z m 0.736248,-0.537421 c 0.230751,-0.206481 0.440761,-0.43621 0.623959,-0.685906 v 0 c 0.108971,-0.14852 0.07694,-0.357293 -0.07162,-0.466266 -0.128587,-0.09437 -0.305998,-0.08445 -0.423333,0.0236 -0.197557,0.181999 -0.406964,0.350944 -0.625864,0.506589 v 0 c -0.179456,0.1276 -0.221472,0.376485 -0.09387,0.555943 0.1276,0.179423 0.376486,0.221438 0.555908,0.09384 0.01214,-0.0086 0.02373,-0.01789 0.03482,-0.0278 z m 0.623959,-0.685906 c 0.165769,-0.225919 0.319439,-0.46094 0.455824,-0.705838 v 0 c 0.07048,-0.126612 0.025,-0.28642 -0.1016,-0.35694 -0.112749,-0.06279 -0.254423,-0.03429 -0.334116,0.06724 -0.155718,0.198367 -0.329671,0.382093 -0.515056,0.552908 v -3.5e-5 c -0.135501,0.124848 -0.144145,0.33588 -0.01929,0.471346 0.124812,0.135502 0.335843,0.144145 0.47131,0.01933 0.01585,-0.01461 0.03023,-0.03066 0.04293,-0.04801 z m 0.455824,-0.705838 c 0.120931,-0.217134 0.233363,-0.439208 0.333058,-0.666962 v 0 c 0.04653,-0.106291 -0.0019,-0.230222 -0.108233,-0.276754 -0.09673,-0.04233 -0.209868,-0.0063 -0.264301,0.0841 -0.119451,0.198367 -0.25333,0.387844 -0.39624,0.569913 v 0 c -0.0895,0.114017 -0.0696,0.278976 0.04441,0.368476 0.113983,0.08946 0.278977,0.0696 0.368443,-0.04442 0.0085,-0.01083 0.01617,-0.02233 0.02286,-0.03436 z m 0.333058,-0.666962 c 0.09288,-0.212231 0.167322,-0.432717 0.218334,-0.658777 v 0 c 0.02035,-0.09021 -0.03627,-0.179846 -0.126471,-0.200201 -0.08213,-0.01852 -0.165206,0.02678 -0.194135,0.105833 -0.07137,0.195157 -0.163158,0.382553 -0.270262,0.560494 v 0 c -0.05987,0.09945 -0.0278,0.228564 0.07161,0.288431 0.09945,0.05987 0.228566,0.0278 0.288433,-0.07165 0.0047,-0.0078 0.0089,-0.0158 0.01249,-0.02413 z m 0.218334,-0.658777 c 0.04646,-0.205916 0.08657,-0.413314 0.119025,-0.621912 v 0 c 0.01386,-0.08911 -0.0471,-0.172543 -0.136207,-0.186407 -0.08907,-0.01386 -0.172543,0.0471 -0.186407,0.136207 -7.94e-4,0.0058 -0.0013,0.01168 -0.0019,0.01757 -0.0088,0.191347 -0.04953,0.380471 -0.115253,0.560176 v 0 c -0.03175,0.08685 0.01291,0.183021 0.09977,0.214771 0.08685,0.03175 0.182986,-0.01291 0.21477,-0.09977 0.0024,-0.0067 0.0045,-0.01362 0.0061,-0.02064 z m -0.217453,-1.222234 c 0.01733,0.188666 0.02082,0.378496 0.01209,0.56769 v 0 c -0.0041,0.09006 0.06551,0.166441 0.155575,0.170604 0.08326,0.0038 0.155998,-0.05567 0.168804,-0.137972 0.03211,-0.206198 0.04586,-0.41529 0.03877,-0.623887 v 0 c -0.0035,-0.103823 -0.09052,-0.185138 -0.194347,-0.18161 -0.103785,0.0035 -0.185102,0.09052 -0.18161,0.194345 1.43e-4,0.0036 2.65e-4,0.0072 7.94e-4,0.01083 z m -0.130458,-0.460833 c 0.07352,0.143228 0.115747,0.300813 0.130458,0.460833 v 0 c 0.0095,0.103435 0.101036,0.1796 0.204504,0.17011 0.09924,-0.0091 0.174133,-0.09409 0.170746,-0.193675 -0.0068,-0.201683 -0.03418,-0.402731 -0.08541,-0.598029 v 0 c -0.03168,-0.120932 -0.155432,-0.193252 -0.276328,-0.161537 -0.120933,0.03171 -0.193252,0.155434 -0.161539,0.276366 0.0042,0.01591 0.01005,0.03129 0.01757,0.04593 z m -0.236855,-0.317712 c 0.09994,0.08788 0.176389,0.199955 0.236855,0.317747 v 0 c 0.05708,0.111196 0.193534,0.155081 0.304731,0.09797 0.09444,-0.04847 0.14252,-0.156069 0.11557,-0.258762 -0.04928,-0.188031 -0.123931,-0.370663 -0.233963,-0.531601 v 0 c -0.08879,-0.129857 -0.266031,-0.16316 -0.395888,-0.0744 -0.129858,0.08879 -0.163158,0.26603 -0.0744,0.395888 0.01344,0.01961 0.02925,0.03746 0.0471,0.05316 z m -0.277601,-0.149719 c 0.102306,0.02942 0.197522,0.0793 0.277601,0.149719 v 0 c 0.118147,0.103858 0.298132,0.09229 0.401992,-0.02586 0.0859,-0.09775 0.09465,-0.241335 0.02119,-0.348791 -0.116308,-0.170145 -0.276717,-0.305894 -0.461642,-0.396311 v 0 c -0.16577,-0.08107 -0.365866,-0.01242 -0.446934,0.153353 -0.08107,0.16577 -0.01241,0.365866 0.153352,0.446934 0.01749,0.0086 0.0357,0.01559 0.05443,0.02096 z m -0.357362,-0.04459 c 0.120613,-0.0035 0.241368,0.01125 0.357362,0.04459 v 0 c 0.177376,0.05101 0.362479,-0.0514 0.413456,-0.228741 0.0448,-0.155822 -0.02868,-0.321274 -0.174307,-0.3925 -0.175861,-0.08601 -0.365443,-0.142452 -0.559576,-0.167534 v 0 c -0.204718,-0.02642 -0.392043,0.11811 -0.418465,0.322791 -0.02643,0.204682 0.118073,0.392042 0.322755,0.418465 0.0195,0.0025 0.03916,0.0035 0.05878,0.0028 z m -1.123527,0.02826 c 0.374507,-0.009 0.749088,-0.01732 1.123527,-0.02826 v 0 c 0.206303,-0.006 0.368652,-0.178188 0.362619,-0.384492 -0.0054,-0.183656 -0.143476,-0.336162 -0.325684,-0.359692 -0.19632,-0.02533 -0.396769,0.04554 -0.574886,0.12065 -0.232939,0.09818 -0.454837,0.222602 -0.671902,0.351543 h -3.4e-5 c -0.07666,0.04554 -0.101883,0.144639 -0.05634,0.221297 0.02981,0.05016 0.08439,0.08036 0.1427,0.07895 z"
       style="fill:#000000;fill-opacity:1;fill-rule:nonzero;stroke:none;stroke-width:0.35277775"
       id="path1396" />
    <path
       d="m 41.024561,51.458379 c -0.0024,-0.19498 -0.148273,-0.365019 -0.340254,-0.397439 v 0 c -0.222285,-0.03754 -0.43293,0.112254 -0.470464,0.334574 -0.03754,0.222321 0.112252,0.432965 0.334574,0.470465 0.222284,0.03754 0.432929,-0.112254 0.470463,-0.334539 0.0041,-0.02413 0.006,-0.04858 0.0057,-0.07306 z m -0.185209,0.527967 c 0.08802,-0.158891 0.187503,-0.341206 0.185209,-0.527967 v 0 c -0.0024,-0.197308 -0.145698,-0.364596 -0.340254,-0.397439 -0.292241,-0.04932 -0.530826,0.181433 -0.684496,0.400367 v 0 c -0.157268,0.224155 -0.103082,0.533365 0.121039,0.690633 0.224155,0.157304 0.533365,0.103117 0.690634,-0.121038 0.01008,-0.01432 0.01937,-0.02921 0.02787,-0.04456 z m -0.262644,0.477944 c 0.08707,-0.159561 0.174557,-0.318911 0.262644,-0.477944 v 0 c 0.132681,-0.2395 0.04607,-0.541231 -0.193429,-0.673911 -0.221755,-0.122872 -0.500485,-0.05863 -0.646112,0.148872 -0.11176,0.15928 -0.217133,0.322968 -0.317569,0.48955 h -3.7e-5 c -0.147108,0.243946 -0.06861,0.560952 0.175332,0.708096 0.243945,0.147108 0.560951,0.06862 0.708059,-0.175331 0.0038,-0.0064 0.0075,-0.01281 0.01111,-0.01933 z m -0.311748,0.573616 c 0.103646,-0.191346 0.207503,-0.382587 0.311748,-0.573616 v 0 c 0.13642,-0.250084 0.04431,-0.563386 -0.20574,-0.699841 -0.242464,-0.132291 -0.5461,-0.05009 -0.688763,0.186408 -0.11638,0.19304 -0.227364,0.389361 -0.33556,0.587093 v 0 c -0.138608,0.253294 -0.04561,0.570971 0.207713,0.709577 0.253297,0.138571 0.570971,0.04558 0.709579,-0.207716 2.64e-4,-7.14e-4 7.93e-4,-0.0014 0.0011,-0.0018 z m -0.372993,0.680191 c 0.125378,-0.226166 0.249803,-0.452825 0.372993,-0.680191 v 0 c 0.137547,-0.253858 0.04325,-0.571182 -0.210645,-0.708695 -0.253116,-0.13716 -0.569489,-0.04385 -0.70767,0.208739 -0.121815,0.222603 -0.245923,0.443971 -0.371687,0.664386 v 0 c -0.144005,0.252342 -0.05616,0.573617 0.196178,0.717621 0.252344,0.144004 0.573654,0.05616 0.717656,-0.19618 0.0011,-0.0018 0.0021,-0.0038 0.0032,-0.0057 z m -0.425837,0.734695 c 0.146437,-0.242287 0.288608,-0.48708 0.425837,-0.734695 v 0 c 0.140864,-0.254106 0.04907,-0.574287 -0.205034,-0.715151 -0.251883,-0.139629 -0.569243,-0.05076 -0.711975,0.199355 -0.134832,0.236326 -0.272875,0.470852 -0.413597,0.703686 v 0 c -0.150989,0.249872 -0.07084,0.574816 0.178999,0.725805 0.249838,0.150989 0.574781,0.07084 0.72577,-0.179 z m -0.471524,0.738682 c 0.163161,-0.242323 0.320429,-0.488633 0.471559,-0.738682 v 0 c 0.15099,-0.249872 0.07084,-0.574816 -0.179036,-0.725805 -0.249835,-0.150989 -0.574781,-0.07084 -0.725768,0.179035 0,0 0,0 0,0 -0.141782,0.234597 -0.289877,0.465384 -0.443971,0.692115 h 3.5e-5 c -0.164394,0.241864 -0.101566,0.571218 0.140335,0.735577 0.241863,0.164359 0.571182,0.101529 0.735542,-0.140335 2.64e-4,-7.15e-4 7.93e-4,-0.0014 0.0013,-0.0018 z m -0.660011,0.944209 c 0.223308,-0.312349 0.445558,-0.625651 0.660011,-0.944209 v 0 c 0.163301,-0.242606 0.09906,-0.571642 -0.143544,-0.734942 -0.24183,-0.162842 -0.569807,-0.09952 -0.733672,0.141605 -0.210645,0.310021 -0.427815,0.615703 -0.645795,0.920609 v 0 c -0.170391,0.238301 -0.115289,0.569595 0.123013,0.739951 0.238302,0.170391 0.569595,0.115323 0.739987,-0.123014 z m -0.677545,0.911084 c 0.235725,-0.296051 0.457517,-0.603285 0.677545,-0.911048 v 0 c 0.170357,-0.238302 0.115287,-0.569631 -0.123013,-0.739987 -0.238302,-0.170392 -0.569595,-0.115323 -0.739987,0.122978 0,0 0,0 0,3.6e-5 -0.224438,0.313901 -0.447077,0.631684 -0.639905,0.966293 l 3.7e-5,3.5e-5 c -0.138044,0.239537 -0.05574,0.545607 0.183833,0.683613 0.214558,0.123614 0.487256,0.07179 0.64149,-0.12192 z m -0.287867,0.374191 c 0.08707,-0.130421 0.190323,-0.251706 0.287867,-0.374191 v 0 c 0.172225,-0.216288 0.13649,-0.531213 -0.0798,-0.703439 -0.216289,-0.172191 -0.531212,-0.136454 -0.703403,0.07983 -0.01558,0.01955 -0.02967,0.04025 -0.04216,0.06191 -0.09186,0.159456 -0.188807,0.318841 -0.265922,0.486234 v 0 c -0.106751,0.231599 -0.0055,0.505883 0.226129,0.612634 0.20634,0.09507 0.451133,0.02593 0.577286,-0.162984 z m -0.81026,-0.05006 v 0 c 0.07747,0.17078 0.250965,0.277354 0.438327,0.26924 v 2.12e-4 c 0.111549,-0.0048 0.217522,-0.05013 0.298062,-0.127458 0.05228,-0.05016 0.09229,-0.113877 0.134125,-0.172615 0.06897,-0.09691 0.137583,-0.194063 0.2062,-0.291182 v 0 c 0.142838,-0.202248 0.09468,-0.482001 -0.107564,-0.62484 -0.200059,-0.141253 -0.476424,-0.09589 -0.620781,0.101952 -0.06664,0.09137 -0.133527,0.182528 -0.202636,0.272063 l -2.65e-4,-3.44e-4 c -0.05962,0.04568 -0.107209,0.105198 -0.138642,0.173425 -0.05796,0.125836 -0.06611,0.268746 -0.0068,0.399556 z m 1.076714,-0.321803 c 0.194027,-0.274744 0.383328,-0.553968 0.551461,-0.845468 v 0 c 0.114194,-0.197978 0.04629,-0.451097 -0.151728,-0.565291 -0.176708,-0.101917 -0.40132,-0.0599 -0.529204,0.09899 -0.20701,0.257211 -0.404283,0.522217 -0.598874,0.788882 v 0 c -0.145944,0.200025 -0.102095,0.480483 0.09793,0.626427 0.199991,0.145909 0.480449,0.102094 0.626393,-0.09793 0.0013,-0.0018 0.0028,-0.0037 0.004,-0.0056 z m 0.551461,-0.845432 c 0.210608,-0.365161 0.434165,-0.723018 0.656309,-1.081194 v 0 c 0.107103,-0.17272 0.05394,-0.399591 -0.118782,-0.50673 -0.168381,-0.104422 -0.389183,-0.05683 -0.499568,0.107703 -0.230293,0.343218 -0.459457,0.691586 -0.718891,1.013884 v 0 c -0.143333,0.178082 -0.115147,0.438608 0.0629,0.581942 0.17808,0.143333 0.438608,0.115147 0.58194,-0.0629 0.01336,-0.01662 0.02543,-0.03426 0.03609,-0.0527 z m 0.656309,-1.081194 c 0.247931,-0.399768 0.498158,-0.798583 0.76267,-1.187626 v 0 c 0.112958,-0.166158 0.06981,-0.392395 -0.09631,-0.505354 -0.166158,-0.11296 -0.392395,-0.06985 -0.505354,0.09631 -0.0028,0.0044 -0.0058,0.0088 -0.0086,0.0133 -0.247616,0.400685 -0.508389,0.793256 -0.77075,1.184345 v 0 c -0.113241,0.168769 -0.06823,0.397404 0.100542,0.510646 0.16877,0.113242 0.397404,0.06823 0.510646,-0.100542 0.0024,-0.0037 0.0048,-0.0073 0.0072,-0.01108 z m 0.76267,-1.187626 c 0.201011,-0.295663 0.408199,-0.587093 0.620958,-0.87443 v 0 c 0.129471,-0.174872 0.09264,-0.421534 -0.0822,-0.551004 -0.174874,-0.129469 -0.421535,-0.09264 -0.551006,0.0822 -0.0052,0.0071 -0.01024,0.01429 -0.01495,0.0217 -0.196956,0.306988 -0.391371,0.615527 -0.583107,0.925795 h 3.7e-5 c -0.105622,0.170921 -0.05267,0.395076 0.118216,0.500662 0.165663,0.102376 0.38255,0.05613 0.492053,-0.104916 z m 0.620958,-0.87443 c 0.213185,-0.287973 0.433353,-0.570759 0.660543,-0.847796 v -3.5e-5 c 0.15395,-0.187713 0.12654,-0.464679 -0.06117,-0.618631 -0.187714,-0.153917 -0.464679,-0.126542 -0.618633,0.06117 -0.0093,0.01132 -0.01799,0.02311 -0.02611,0.03528 -0.203483,0.305964 -0.404389,0.613621 -0.602792,0.922902 v 0 c -0.117475,0.183127 -0.06427,0.42679 0.118851,0.544265 0.174519,0.111972 0.405942,0.06946 0.529306,-0.09716 z m 0.660543,-0.847796 c 0.109889,-0.13402 0.21999,-0.267793 0.330412,-0.40139 0.05369,-0.06495 0.107489,-0.129858 0.161324,-0.194734 0.05895,-0.07098 0.127458,-0.140864 0.177199,-0.218546 v 0 c 0.139065,-0.217064 0.07581,-0.505742 -0.141287,-0.644771 -0.198014,-0.126859 -0.459457,-0.08657 -0.610092,0.09398 -0.224086,0.268569 -0.429826,0.552132 -0.623464,0.843244 v 0 c -0.134446,0.202142 -0.07959,0.475015 0.122555,0.609459 0.187994,0.12506 0.44016,0.08735 0.583353,-0.08728 z m 0.634294,-0.767397 c 0.152857,-0.183198 0.310832,-0.363644 0.48387,-0.52825 v 0 c 0.188595,-0.179387 0.196037,-0.477731 0.01662,-0.666326 -0.179424,-0.188595 -0.477731,-0.196074 -0.666361,-0.01665 -0.0032,0.0032 -0.0066,0.0063 -0.0098,0.0096 -0.190288,0.191875 -0.368051,0.396169 -0.541089,0.603567 v 0 c -0.165171,0.197944 -0.138607,0.492266 0.05934,0.657437 0.197908,0.165135 0.492268,0.138571 0.657402,-0.05937 z m 0.48387,-0.52825 c 0.09684,-0.09214 0.19939,-0.185173 0.315735,-0.252377 v 0 c 0.236503,-0.136596 0.3175,-0.439067 0.180903,-0.675569 -0.136593,-0.236503 -0.439065,-0.3175 -0.675568,-0.180905 -0.0259,0.01496 -0.05038,0.03224 -0.07316,0.05161 -0.142135,0.120932 -0.276085,0.251424 -0.407424,0.383857 v 0 c -0.183304,0.18482 -0.182068,0.483235 0.0028,0.666538 0.181046,0.179564 0.472016,0.182598 0.656764,0.0068 z m 0.315735,-0.252377 c 0.02797,-0.01616 0.0568,-0.03164 0.08703,-0.04322 0.0054,-0.0021 0.01098,-0.0041 0.01659,-0.0056 7.93e-4,-1.76e-4 -0.02741,0.0039 0.0075,-7.06e-4 v 0 c 0.291042,-0.03708 0.496922,-0.303072 0.459846,-0.594113 -0.03708,-0.291007 -0.303038,-0.496888 -0.594079,-0.459811 -0.0442,0.0056 -0.08752,0.01679 -0.12894,0.03323 -0.153704,0.06103 -0.290478,0.158573 -0.415748,0.265183 v 0 c -0.20801,0.177024 -0.23313,0.489127 -0.05614,0.697124 0.154728,0.181822 0.417232,0.227119 0.623959,0.107739 z m 0.09271,-0.04734 c 0.0079,-7.06e-4 -0.08604,-0.02191 0.0068,0.0067 v 0 c 0.296121,0.09116 0.610094,-0.07497 0.701251,-0.371087 0.09119,-0.296157 -0.07496,-0.610129 -0.371086,-0.701287 -0.02246,-0.0069 -0.04533,-0.01242 -0.06851,-0.01647 -0.173004,-0.03023 -0.350804,-0.005 -0.513258,0.05948 v 0 c -0.272661,0.108267 -0.405942,0.417089 -0.297674,0.689751 0.08696,0.219004 0.3078,0.354541 0.542467,0.332951 z m -0.202671,-0.112536 v 0 c 0.132046,0.297603 0.480343,0.4318 0.777909,0.299755 0.297604,-0.132044 0.4318,-0.480307 0.299757,-0.77791 -0.0085,-0.01916 -0.01802,-0.03785 -0.02854,-0.05602 -0.125519,-0.217064 -0.325438,-0.391336 -0.57799,-0.435469 v 0 c -0.305224,-0.05334 -0.595879,0.150848 -0.649219,0.456071 -0.0333,0.190606 0.03394,0.384916 0.177943,0.514139 l 1.4e-4,-7.07e-4 z m -0.02085,-0.05397 c 0.02858,0.08639 0.03528,0.182104 0.04216,0.272133 v 0 c 0.02617,0.342547 0.325085,0.598981 0.667596,0.572805 0.342549,-0.02618 0.598983,-0.325049 0.572808,-0.667596 -0.0019,-0.02487 -0.0053,-0.0496 -0.01016,-0.07408 -0.04018,-0.20186 -0.09881,-0.404319 -0.202425,-0.583495 v 0 C 43.097624,49.68867 42.73705,49.592361 42.455216,49.75538 c -0.241795,0.139841 -0.352214,0.430177 -0.264515,0.69536 z m 0.04216,0.272133 c 0.01442,0.188877 0.0145,0.378883 0.01045,0.568184 v 0 c -0.0076,0.358528 0.276754,0.655355 0.635246,0.66301 0.358529,0.0076 0.655357,-0.276754 0.663011,-0.635247 2.65e-4,-0.01344 1.78e-4,-0.02688 -2.64e-4,-0.04032 -0.0099,-0.24264 -0.03059,-0.486022 -0.07807,-0.724464 v 0 c -0.06707,-0.336902 -0.39455,-0.55566 -0.731488,-0.488597 -0.30861,0.06145 -0.522711,0.343676 -0.498756,0.657437 z m 1.263967,1.451363 c 0.03884,-0.296686 0.05655,-0.596618 0.04434,-0.895773 v 0 c -0.0146,-0.358281 -0.316898,-0.63687 -0.675178,-0.622265 -0.342654,0.01397 -0.615387,0.292029 -0.622689,0.634894 -0.005,0.235373 -0.02727,0.470253 -0.06057,0.703263 v 0 c -0.05179,0.362585 0.200131,0.6985 0.562716,0.750323 0.362585,0.05182 0.6985,-0.200131 0.750321,-0.562681 2.65e-4,-0.0025 7.94e-4,-0.0052 0.0011,-0.0078 z m -0.152786,0.915211 c 0.06064,-0.303353 0.112641,-0.608471 0.152786,-0.915211 v 0 c 0.04752,-0.363185 -0.208348,-0.696101 -0.5715,-0.743656 -0.360151,-0.04713 -0.691232,0.204223 -0.742595,0.56381 -0.03934,0.275343 -0.09045,0.548993 -0.149826,0.820737 v 0 c -0.07899,0.361386 0.149932,0.718362 0.511353,0.797349 0.361383,0.07899 0.718359,-0.149966 0.797348,-0.511352 7.94e-4,-0.0039 0.0019,-0.0078 0.0024,-0.01168 z M 43.145,54.029635 c 0.06974,-0.312667 0.136208,-0.626074 0.199004,-0.940188 v 0 c 0.07253,-0.362761 -0.162737,-0.715609 -0.5255,-0.788105 -0.358174,-0.07161 -0.70767,0.156951 -0.785635,0.513785 -0.06713,0.307164 -0.134972,0.614186 -0.203411,0.921103 v 0 c -0.08103,0.363291 0.147777,0.723477 0.511069,0.804475 0.363291,0.08103 0.723476,-0.147779 0.804473,-0.51107 0,0 0,0 0,0 z m -0.240593,0.960861 c 0.08858,-0.318135 0.168732,-0.638563 0.240593,-0.960861 v 0 c 0.08103,-0.363255 -0.147777,-0.723441 -0.511069,-0.804474 -0.363254,-0.08103 -0.723439,0.147779 -0.804473,0.511069 -0.06953,0.311679 -0.138502,0.623464 -0.206939,0.935426 v 0 c -0.07821,0.356446 0.147354,0.708765 0.503801,0.786976 0.342511,0.07511 0.684035,-0.130351 0.778087,-0.468136 z m -0.309634,1.158416 c 0.100647,-0.38682 0.202425,-0.773394 0.309634,-1.158416 v 0 c 0.0979,-0.351543 -0.107704,-0.715892 -0.459245,-0.813788 -0.351544,-0.0979 -0.715894,0.107703 -0.81379,0.459247 -0.0032,0.01182 -0.0062,0.02371 -0.0089,0.0357 -0.0871,0.397016 -0.169545,0.79509 -0.250965,1.193306 v 0 c -0.0695,0.339866 0.149649,0.671689 0.489514,0.741186 0.327271,0.06692 0.649639,-0.133985 0.733705,-0.457236 z m -1.374315,0.803628 v 0 c 0.01132,0.307587 0.269841,0.547758 0.577427,0.536469 0.213005,-0.0078 0.402907,-0.136525 0.489162,-0.331434 0.05708,-0.129011 0.09888,-0.265007 0.139488,-0.399874 0.06071,-0.201613 0.115252,-0.405059 0.168238,-0.608824 h 3.7e-5 c 0.08731,-0.335703 -0.114054,-0.678674 -0.449792,-0.765986 -0.33574,-0.08731 -0.678675,0.114053 -0.765987,0.449791 -0.0028,0.01069 -0.0053,0.02145 -0.0075,0.03228 -0.0429,0.209868 -0.08343,0.420441 -0.114512,0.63239 -0.02201,0.150107 -0.04216,0.303177 -0.03655,0.455189 z m 0,3.6e-5 c 0.01072,0.291041 0.147744,0.565785 0.308115,0.80264 v 0 c 0.04583,0.06763 0.137795,0.08534 0.205423,0.03955 0.0024,-0.0018 0.0049,-0.0035 0.0073,-0.0053 0.21985,-0.169122 0.431906,-0.37458 0.545782,-0.631967 v 0 c 0.124529,-0.281481 -0.0028,-0.610587 -0.284199,-0.735118 -0.28148,-0.12453 -0.610587,0.0028 -0.735116,0.284163 -0.03422,0.07736 -0.05038,0.161466 -0.04727,0.245992 z"
       style="fill:#000000;fill-opacity:1;fill-rule:nonzero;stroke:none;stroke-width:0.35277775"
       id="path1398" />
    <path
       d="m 42.595831,54.669468 c 0.08336,-0.05807 0.152472,-0.136172 0.188844,-0.232304 v 0 c 0.0105,-0.0278 0.0182,-0.05655 0.02294,-0.08587 0.02508,-0.155998 -0.03679,-0.311926 -0.146613,-0.421499 v 0 c -0.18923,-0.188807 -0.495652,-0.188489 -0.684459,7.15e-4 -0.188807,0.189194 -0.188489,0.495652 7.94e-4,0.684459 0.165806,0.165453 0.426368,0.188419 0.618561,0.05447 z m -0.330234,0.172368 c 0.117123,-0.04223 0.228142,-0.101212 0.330234,-0.172332 v -3.6e-5 c 0.219287,-0.152788 0.273193,-0.454483 0.12037,-0.67377 -0.0164,-0.02357 -0.03489,-0.04565 -0.05524,-0.06593 -0.129823,-0.12954 -0.29577,-0.223061 -0.475547,-0.261302 v 0 c -0.33034,-0.07034 -0.655142,0.14044 -0.72545,0.470817 -0.07035,0.330341 0.140441,0.655143 0.470781,0.725452 0.111583,0.02374 0.227576,0.01584 0.334857,-0.02289 z m -0.437092,0.1518 c 0.145873,-0.05002 0.292029,-0.09945 0.437126,-0.1518 v 0 c 0.317677,-0.114618 0.48232,-0.465067 0.367702,-0.782779 -0.07176,-0.198896 -0.24116,-0.346604 -0.447958,-0.390596 -0.201718,-0.04293 -0.417407,-0.02649 -0.621525,-0.01432 v 0 c -0.37987,0.02268 -0.669393,0.349038 -0.64671,0.728874 0.02267,0.379836 0.349038,0.669396 0.728874,0.646677 0.06219,-0.0037 0.123576,-0.01584 0.182491,-0.03605 z m -0.648652,0.193851 c 0.219323,-0.05348 0.435221,-0.120615 0.648652,-0.193851 v 0 c 0.359939,-0.123472 0.551638,-0.515338 0.42813,-0.875277 -0.100436,-0.292806 -0.38382,-0.482671 -0.692785,-0.46422 -0.209865,0.01256 -0.419663,0.02685 -0.629107,0.04523 v 0 c -0.416066,0.03648 -0.723795,0.403331 -0.687282,0.819397 0.03648,0.416101 0.403331,0.723794 0.819399,0.687317 0.0381,-0.0035 0.07585,-0.0096 0.112993,-0.01863 z m -1.252009,0.231034 c 0.260845,-0.04364 0.521584,-0.08795 0.781685,-0.135713 0.157234,-0.02886 0.31496,-0.05747 0.470324,-0.09532 v -3.5e-5 c 0.405799,-0.09888 0.654579,-0.508 0.555696,-0.913801 -0.08844,-0.362937 -0.428659,-0.606918 -0.800806,-0.574287 -0.403188,0.03535 -0.806556,0.06893 -1.209887,0.102976 v 0 c -0.448556,0.03789 -0.781508,0.432224 -0.743619,0.88078 0.03785,0.448593 0.432188,0.781544 0.880779,0.743656 0.02204,-0.0018 0.04399,-0.0046 0.06583,-0.0083 z m -1.345988,0.193816 c 0.451062,-0.03746 0.900044,-0.119274 1.345988,-0.193816 v 0 c 0.444008,-0.07426 0.743763,-0.494347 0.669539,-0.938353 -0.06999,-0.418677 -0.449546,-0.713528 -0.872527,-0.677827 -0.421217,0.03556 -0.842645,0.07359 -1.264671,0.09857 v 0 c -0.473007,0.02798 -0.833755,0.434093 -0.805781,0.907097 0.02797,0.472969 0.434094,0.833755 0.907098,0.80578 0.0068,-3.44e-4 0.01357,-7.14e-4 0.02035,-0.0014 z m -0.855451,-0.411903 v 0 c 0.05761,0.09377 0.132964,0.175366 0.221827,0.240242 0.184467,0.13469 0.408305,0.190359 0.633624,0.171661 v 0 c 0.438187,-0.03641 0.777912,-0.39818 0.786765,-0.837776 0.0496,-0.05704 0.100965,-0.113136 0.153072,-0.168628 v 0 c 0.07207,-0.07676 0.0683,-0.197414 -0.0085,-0.269487 -0.02013,-0.01894 -0.04417,-0.03323 -0.07038,-0.04195 -0.09529,-0.03168 -0.190254,-0.0642 -0.284729,-0.09818 l 0.0011,-7.14e-4 c -0.174588,-0.201436 -0.432893,-0.310268 -0.698958,-0.294534 -0.189653,0.01122 -0.373697,0.06759 -0.526873,0.184644 v 0 c -0.34477,0.263525 -0.434165,0.745207 -0.206941,1.114883 z"
       style="fill:#000000;fill-opacity:1;fill-rule:nonzero;stroke:none;stroke-width:0.35277775"
       id="path1400" />
  </g>
</svg>